<svg width="1854" height="400" viewBox="0 0 1854 400" fill="none" xmlns="http://www.w3.org/2000/svg">
<g clip-path="url(#clip0_6864_37)">
<path d="M275.861 400C386.318 400 475.861 310.457 475.861 200V0C365.404 0 275.861 89.543 275.861 200V400Z" fill="#982E0A"/>
<path d="M137.93 400C248.387 400 337.93 310.457 337.93 200V0C227.473 0 137.93 89.543 137.93 200V400Z" fill="#FD5A3B"/>
<path d="M0 400C110.457 400 200 310.457 200 200V0C89.5429 0 0 89.543 0 200V400Z" fill="#FA9A87"/>
<path d="M576 7.69232V392.308H707.868C811.165 392.308 866.11 341.209 866.11 236.264V163.736C866.11 58.7912 811.165 7.69232 707.868 7.69232H576ZM648.527 73.6264H708.967C771.055 73.6264 793.582 105.495 793.582 161.538V238.462C793.582 294.506 771.055 326.374 708.967 326.374H648.527V73.6264Z" fill="#282624"/>
<path d="M910.182 159.341V240.659C910.182 341.758 970.072 400 1068.42 400C1166.78 400 1226.67 341.758 1226.67 240.659V159.341C1226.67 60.989 1166.78 0 1068.42 0C970.072 0 910.182 60.989 910.182 159.341ZM982.709 156.044C982.709 103.846 1012.93 64.8352 1068.42 64.8352C1122.27 64.8352 1154.14 101.648 1154.14 156.044V243.956C1154.14 297.253 1128.31 335.165 1068.42 335.165C1010.18 335.165 982.709 299.451 982.709 243.956V156.044Z" fill="#282624"/>
<path d="M1353.64 7.69232L1247.05 392.308H1321.77L1344.85 306.593H1478.91L1501.99 392.308H1576.72L1470.12 7.69232H1353.64ZM1361.88 240.659L1408.58 68.1319H1415.18L1461.88 240.659H1361.88Z" fill="#282624"/>
<path d="M1853.37 7.69232H1780.85V276.923C1780.85 313.187 1762.16 334.066 1729.75 334.066C1695.13 334.066 1675.35 312.637 1675.35 276.923V240.659H1602.82V276.923C1602.82 354.396 1652.82 400 1731.94 400C1807.22 400 1853.37 356.593 1853.37 276.923V7.69232Z" fill="#282624"/>
</g>
<defs>
<clipPath id="clip0_6864_37">
<rect width="1854" height="400" fill="white"/>
</clipPath>
</defs>
</svg>
