<?xml version="1.0" encoding="UTF-8" standalone="no"?>
<svg
   width="317.11957"
   zoomAndPan="magnify"
   viewBox="0 0 237.83968 275.21457"
   height="366.95276"
   preserveAspectRatio="xMidYMid"
   version="1.0"
   id="svg164"
   sodipodi:docname="denht_hex.svg"
   inkscape:version="1.3 (0e150ed, 2023-07-21)"
   xmlns:inkscape="http://www.inkscape.org/namespaces/inkscape"
   xmlns:sodipodi="http://sodipodi.sourceforge.net/DTD/sodipodi-0.dtd"
   xmlns="http://www.w3.org/2000/svg"
   xmlns:svg="http://www.w3.org/2000/svg">
  <sodipodi:namedview
     id="namedview164"
     pagecolor="#ffffff"
     bordercolor="#000000"
     borderopacity="0.25"
     inkscape:showpageshadow="2"
     inkscape:pageopacity="0.0"
     inkscape:pagecheckerboard="0"
     inkscape:deskcolor="#d1d1d1"
     inkscape:zoom="1.2291667"
     inkscape:cx="82.983051"
     inkscape:cy="96"
     inkscape:window-width="1680"
     inkscape:window-height="997"
     inkscape:window-x="0"
     inkscape:window-y="25"
     inkscape:window-maximized="1"
     inkscape:current-layer="svg164" />
  <defs
     id="defs14">
    <g
       id="g1" />
    <clipPath
       id="1e43169124">
      <path
         d="M 0,0.289062 H 123.94141 V 143.71094 H 0 Z m 0,0"
         clip-rule="nonzero"
         id="path1" />
    </clipPath>
    <clipPath
       id="e8fb3a8982">
      <path
         d="M 61.972656,0.289062 123.94141,36.34375 v 71.3125 L 61.972656,143.71094 0,107.65625 v -71.3125 z m 0,0"
         clip-rule="nonzero"
         id="path2" />
    </clipPath>
    <clipPath
       id="b7f9fdb4ac">
      <path
         d="M 0,0.289062 H 123.94141 V 143.71094 H 0 Z m 0,0"
         clip-rule="nonzero"
         id="path3" />
    </clipPath>
    <clipPath
       id="0182a0566d">
      <path
         d="M 61.972656,0.289062 123.94141,36.34375 v 71.3125 L 61.972656,143.71094 0,107.65625 v -71.3125 z m 0,0"
         clip-rule="nonzero"
         id="path4" />
    </clipPath>
    <clipPath
       id="982270fcbc">
      <rect
         x="0"
         width="124"
         y="0"
         height="144"
         id="rect4" />
    </clipPath>
    <clipPath
       id="40fe601636">
      <path
         d="M 0,0.292969 H 123.93359 V 143.71094 H 0 Z m 0,0"
         clip-rule="nonzero"
         id="path5" />
    </clipPath>
    <clipPath
       id="98fc0efe86">
      <path
         d="M 61.964844,0.292969 123.93359,36.347656 V 107.65234 L 61.964844,143.70703 0,107.65234 V 36.347656 Z m 0,0"
         clip-rule="nonzero"
         id="path6" />
    </clipPath>
    <clipPath
       id="6d63420531">
      <path
         d="m 13.554688,103.42969 h 97.687502 v 5.87109 H 13.554688 Z m 0,0"
         clip-rule="nonzero"
         id="path7" />
    </clipPath>
    <clipPath
       id="a7ab564ea7">
      <path
         d="m 0.554688,0.429688 h 97.6875 v 5.871093 h -97.6875 z m 0,0"
         clip-rule="nonzero"
         id="path8" />
    </clipPath>
    <clipPath
       id="09b9cd7c32">
      <rect
         x="0"
         width="99"
         y="0"
         height="7"
         id="rect8" />
    </clipPath>
    <clipPath
       id="f9ad16eb30">
      <rect
         x="0"
         width="96"
         y="0"
         height="9"
         id="rect9" />
    </clipPath>
    <clipPath
       id="a29fc9c821">
      <rect
         x="0"
         width="79"
         y="0"
         height="27"
         id="rect10" />
    </clipPath>
    <clipPath
       id="2c300e57a2">
      <path
         d="M 27,22 H 96 V 52.144531 H 27 Z m 0,0"
         clip-rule="nonzero"
         id="path10" />
    </clipPath>
    <clipPath
       id="cf7b1cd2c4">
      <rect
         x="0"
         width="69"
         y="0"
         height="31"
         id="rect11" />
    </clipPath>
    <clipPath
       id="84cde15a40">
      <rect
         x="0"
         width="43"
         y="0"
         height="31"
         id="rect12" />
    </clipPath>
    <clipPath
       id="478517be6d">
      <rect
         x="0"
         width="28"
         y="0"
         height="31"
         id="rect13" />
    </clipPath>
    <clipPath
       id="566bff7fa0">
      <rect
         x="0"
         width="123"
         y="0"
         height="53"
         id="rect14" />
    </clipPath>
  </defs>
  <g
     clip-path="url(#1e43169124)"
     id="g19"
     transform="matrix(1.9189686,0,0,1.9189686,0,-0.5547009)">
    <g
       clip-path="url(#e8fb3a8982)"
       id="g18">
      <g
         id="g17">
        <g
           clip-path="url(#982270fcbc)"
           id="g16">
          <g
             clip-path="url(#b7f9fdb4ac)"
             id="g15">
            <g
               clip-path="url(#0182a0566d)"
               id="g14">
              <path
                 fill="#fedd00"
                 d="M 0,0.289062 H 123.94141 V 143.59766 H 0 Z m 0,0"
                 fill-opacity="1"
                 fill-rule="nonzero"
                 id="path14" />
            </g>
          </g>
        </g>
      </g>
    </g>
  </g>
  <g
     clip-path="url(#40fe601636)"
     id="g21"
     transform="matrix(1.9189686,0,0,1.9189686,0,-0.5547009)">
    <g
       clip-path="url(#98fc0efe86)"
       id="g20">
      <path
         stroke-linecap="butt"
         transform="matrix(0.747,0,0,0.747,0,0.294489)"
         fill="none"
         stroke-linejoin="miter"
         d="M 82.951596,-0.00203576 165.90842,48.263944 V 143.71868 L 82.951596,191.98466 0,143.71868 V 48.263944 Z m 0,0"
         stroke="#000000"
         stroke-width="4"
         stroke-opacity="1"
         stroke-miterlimit="4"
         id="path19" />
    </g>
  </g>
  <g
     clip-path="url(#6d63420531)"
     id="g25"
     transform="matrix(1.9189686,0,0,1.9189686,0,-0.5547009)">
    <g
       transform="translate(13,103)"
       id="g24">
      <g
         clip-path="url(#09b9cd7c32)"
         id="g23">
        <g
           clip-path="url(#a7ab564ea7)"
           id="g22">
          <path
             fill="#ffffff"
             d="M 0.554688,0.429688 H 98.25 V 6.300781 H 0.554688 Z m 0,0"
             fill-opacity="1"
             fill-rule="nonzero"
             id="path21" />
        </g>
      </g>
    </g>
  </g>
  <g
     transform="matrix(1.9189686,0,0,1.9189686,32.622466,189.42319)"
     id="g99">
    <g
       clip-path="url(#f9ad16eb30)"
       id="g98">
      <g
         fill="#000000"
         fill-opacity="1"
         id="g28">
        <g
           transform="translate(1.133004,6.464293)"
           id="g27">
          <g
             id="g26">
            <path
               d="m 3.40625,-4.625 v 3.140625 c -0.011719,0.210937 -0.054688,0.40625 -0.125,0.59375 -0.0625,0.1875 -0.15625,0.355469 -0.28125,0.5 -0.125,0.136719 -0.277344,0.246094 -0.453125,0.328125 -0.179687,0.0820312 -0.375,0.125 -0.59375,0.125 -0.21875,0 -0.421875,-0.0429688 -0.609375,-0.125 -0.179688,-0.082031 -0.328125,-0.191406 -0.453125,-0.328125 -0.117187,-0.144531 -0.210937,-0.3125 -0.28125,-0.5 C 0.535156,-1.078125 0.5,-1.273438 0.5,-1.484375 V -4.625 H 0.859375 L 0.875,-1.484375 c 0,0.15625 0.019531,0.308594 0.0625,0.453125 0.050781,0.148438 0.125,0.277344 0.21875,0.390625 0.09375,0.117187 0.203125,0.210937 0.328125,0.28125 0.132813,0.0625 0.289063,0.09375 0.46875,0.09375 0.164063,0 0.316406,-0.03125 0.453125,-0.09375 0.132812,-0.070313 0.242188,-0.164063 0.328125,-0.28125 C 2.828125,-0.753906 2.894531,-0.882812 2.9375,-1.03125 2.988281,-1.175781 3.019531,-1.328125 3.03125,-1.484375 V -4.625 Z m 0,0"
               id="path25" />
          </g>
        </g>
      </g>
      <g
         fill="#000000"
         fill-opacity="1"
         id="g31">
        <g
           transform="translate(5.037156,6.464293)"
           id="g30">
          <g
             id="g29">
            <path
               d="m 3.390625,0 h -0.375 l -2.125,-3.90625 V 0 h -0.375 v -4.625 h 0.375 l 2.125,3.890625 V -4.625 h 0.375 z m 0,0"
               id="path28" />
          </g>
        </g>
      </g>
      <g
         fill="#000000"
         fill-opacity="1"
         id="g34">
        <g
           transform="translate(8.941308,6.464293)"
           id="g33">
          <g
             id="g32" />
        </g>
      </g>
      <g
         fill="#000000"
         fill-opacity="1"
         id="g37">
        <g
           transform="translate(12.84546,6.464293)"
           id="g36">
          <g
             id="g35">
            <path
               d="M 1.0625,-1.90625 V 0 h -0.375 v -4.625 h 1.453125 c 0.195313,0.011719 0.382813,0.046875 0.5625,0.109375 0.175781,0.0625 0.332031,0.152344 0.46875,0.265625 0.132813,0.117188 0.238281,0.257812 0.3125,0.421875 0.070313,0.167969 0.109375,0.359375 0.109375,0.578125 0,0.210938 -0.039062,0.398438 -0.109375,0.5625 -0.074219,0.167969 -0.179687,0.308594 -0.3125,0.421875 C 3.035156,-2.148438 2.878906,-2.0625 2.703125,-2 c -0.179687,0.0625 -0.367187,0.09375 -0.5625,0.09375 z m 0,-0.3125 H 2.140625 C 2.296875,-2.226562 2.4375,-2.253906 2.5625,-2.296875 2.695312,-2.347656 2.8125,-2.414062 2.90625,-2.5 3,-2.59375 3.070312,-2.703125 3.125,-2.828125 3.1875,-2.953125 3.21875,-3.09375 3.21875,-3.25 3.21875,-3.40625 3.191406,-3.546875 3.140625,-3.671875 3.085938,-3.804688 3.007812,-3.914062 2.90625,-4 2.8125,-4.09375 2.695312,-4.164062 2.5625,-4.21875 2.4375,-4.269531 2.296875,-4.296875 2.140625,-4.296875 H 1.0625 Z m 0,0"
               id="path34" />
          </g>
        </g>
      </g>
      <g
         fill="#000000"
         fill-opacity="1"
         id="g40">
        <g
           transform="translate(16.749613,6.464293)"
           id="g39">
          <g
             id="g38">
            <path
               d="m 3.5,-2 c 0,0.15625 -0.015625,0.320312 -0.046875,0.484375 -0.023437,0.15625 -0.058594,0.3125 -0.109375,0.46875 -0.054688,0.15625 -0.121094,0.304687 -0.203125,0.4375 C 3.054688,-0.472656 2.957031,-0.351562 2.84375,-0.25 c -0.117188,0.09375 -0.246094,0.171875 -0.390625,0.234375 -0.148437,0.0507812 -0.3125,0.078125 -0.5,0.078125 -0.1875,0 -0.355469,-0.0273438 -0.5,-0.078125 C 1.304688,-0.078125 1.175781,-0.15625 1.0625,-0.25 0.945312,-0.351562 0.847656,-0.472656 0.765625,-0.609375 c -0.085937,-0.132813 -0.15625,-0.28125 -0.21875,-0.4375 -0.054687,-0.15625 -0.09375,-0.3125 -0.125,-0.46875 C 0.398438,-1.679688 0.390625,-1.84375 0.390625,-2 v -0.609375 c 0,-0.15625 0.007813,-0.316406 0.03125,-0.484375 0.03125,-0.164062 0.070313,-0.320312 0.125,-0.46875 C 0.609375,-3.71875 0.679688,-3.863281 0.765625,-4 0.847656,-4.132812 0.945312,-4.253906 1.0625,-4.359375 1.175781,-4.460938 1.304688,-4.539062 1.453125,-4.59375 c 0.144531,-0.0625 0.3125,-0.09375 0.5,-0.09375 0.175781,0 0.335937,0.03125 0.484375,0.09375 0.15625,0.054688 0.289062,0.132812 0.40625,0.234375 0.113281,0.105469 0.210938,0.226563 0.296875,0.359375 0.082031,0.136719 0.148437,0.28125 0.203125,0.4375 0.050781,0.148438 0.085938,0.304688 0.109375,0.46875 C 3.484375,-2.925781 3.5,-2.765625 3.5,-2.609375 Z M 3.125,-2.625 C 3.125,-2.738281 3.113281,-2.863281 3.09375,-3 3.082031,-3.132812 3.054688,-3.265625 3.015625,-3.390625 2.972656,-3.515625 2.921875,-3.632812 2.859375,-3.75 2.804688,-3.863281 2.734375,-3.960938 2.640625,-4.046875 2.554688,-4.140625 2.457031,-4.210938 2.34375,-4.265625 2.226562,-4.316406 2.097656,-4.34375 1.953125,-4.34375 c -0.15625,0 -0.292969,0.027344 -0.40625,0.078125 C 1.429688,-4.210938 1.332031,-4.140625 1.25,-4.046875 1.164062,-3.960938 1.09375,-3.863281 1.03125,-3.75 0.96875,-3.632812 0.914062,-3.515625 0.875,-3.390625 0.84375,-3.265625 0.816406,-3.132812 0.796875,-3 0.773438,-2.863281 0.765625,-2.738281 0.765625,-2.625 V -2 c 0,0.125 0.007813,0.257812 0.03125,0.390625 0.019531,0.125 0.046875,0.257813 0.078125,0.390625 0.039062,0.125 0.09375,0.246094 0.15625,0.359375 0.0625,0.117187 0.132812,0.214844 0.21875,0.296875 0.082031,0.085938 0.179688,0.152344 0.296875,0.203125 0.125,0.054687 0.257813,0.078125 0.40625,0.078125 0.144531,0 0.273437,-0.023438 0.390625,-0.078125 C 2.457031,-0.410156 2.554688,-0.476562 2.640625,-0.5625 2.734375,-0.644531 2.8125,-0.742188 2.875,-0.859375 2.9375,-0.972656 2.984375,-1.09375 3.015625,-1.21875 3.054688,-1.351562 3.082031,-1.484375 3.09375,-1.609375 3.113281,-1.742188 3.125,-1.875 3.125,-2 Z m 0,0"
               id="path37" />
          </g>
        </g>
      </g>
      <g
         fill="#000000"
         fill-opacity="1"
         id="g43">
        <g
           transform="translate(20.653765,6.464293)"
           id="g42">
          <g
             id="g41">
            <path
               d="m 0.5625,0 v -4.625 h 1.109375 c 0.300781,0.011719 0.566406,0.074219 0.796875,0.1875 0.238281,0.105469 0.4375,0.25 0.59375,0.4375 0.15625,0.1875 0.273438,0.40625 0.359375,0.65625 0.09375,0.25 0.140625,0.523438 0.140625,0.8125 v 0.453125 c 0,0.28125 -0.046875,0.546875 -0.140625,0.796875 C 3.335938,-1.03125 3.21875,-0.8125 3.0625,-0.625 2.90625,-0.4375 2.707031,-0.285156 2.46875,-0.171875 2.238281,-0.0546875 1.972656,0 1.671875,0 Z m 0.375,-4.296875 v 3.96875 h 0.734375 c 0.25,0 0.46875,-0.046875 0.65625,-0.140625 0.1875,-0.101562 0.34375,-0.234375 0.46875,-0.390625 0.125,-0.164063 0.21875,-0.351563 0.28125,-0.5625 C 3.148438,-1.628906 3.1875,-1.847656 3.1875,-2.078125 v -0.46875 c 0,-0.226563 -0.039062,-0.445313 -0.109375,-0.65625 -0.0625,-0.207031 -0.15625,-0.390625 -0.28125,-0.546875 -0.125,-0.164062 -0.28125,-0.296875 -0.46875,-0.390625 -0.1875,-0.101563 -0.40625,-0.15625 -0.65625,-0.15625 z m 0,0"
               id="path40" />
          </g>
        </g>
      </g>
      <g
         fill="#000000"
         fill-opacity="1"
         id="g46">
        <g
           transform="translate(24.557917,6.464293)"
           id="g45">
          <g
             id="g44">
            <path
               d="m 3.484375,-1.40625 c -0.023437,0.210938 -0.074219,0.402344 -0.15625,0.578125 -0.074219,0.179687 -0.179687,0.335937 -0.3125,0.46875 -0.125,0.136719 -0.277344,0.242187 -0.453125,0.3125 C 2.382812,0.0234375 2.1875,0.0625 1.96875,0.0625 c -0.1875,0 -0.355469,-0.0273438 -0.5,-0.078125 C 1.320312,-0.078125 1.1875,-0.15625 1.0625,-0.25 0.945312,-0.34375 0.847656,-0.457031 0.765625,-0.59375 0.679688,-0.726562 0.613281,-0.867188 0.5625,-1.015625 0.507812,-1.171875 0.46875,-1.328125 0.4375,-1.484375 0.414062,-1.648438 0.398438,-1.8125 0.390625,-1.96875 V -2.640625 C 0.398438,-2.804688 0.414062,-2.96875 0.4375,-3.125 0.46875,-3.289062 0.507812,-3.445312 0.5625,-3.59375 0.613281,-3.75 0.679688,-3.890625 0.765625,-4.015625 c 0.082031,-0.132813 0.179687,-0.25 0.296875,-0.34375 0.125,-0.101563 0.257812,-0.179687 0.40625,-0.234375 0.144531,-0.0625 0.3125,-0.09375 0.5,-0.09375 0.21875,0 0.414062,0.039062 0.59375,0.109375 0.175781,0.074219 0.328125,0.179687 0.453125,0.3125 0.132813,0.136719 0.238281,0.292969 0.3125,0.46875 0.082031,0.179687 0.132813,0.375 0.15625,0.59375 h -0.375 c -0.023437,-0.164063 -0.0625,-0.316406 -0.125,-0.453125 -0.054687,-0.132812 -0.125,-0.253906 -0.21875,-0.359375 -0.09375,-0.113281 -0.210937,-0.195313 -0.34375,-0.25 -0.125,-0.0625 -0.277344,-0.09375 -0.453125,-0.09375 -0.148438,0 -0.28125,0.027344 -0.40625,0.078125 -0.117188,0.054688 -0.21875,0.121094 -0.3125,0.203125 -0.085938,0.085937 -0.15625,0.183594 -0.21875,0.296875 -0.054688,0.117188 -0.101562,0.234375 -0.140625,0.359375 -0.042969,0.125 -0.074219,0.257813 -0.09375,0.390625 -0.011719,0.125 -0.015625,0.25 -0.015625,0.375 v 0.6875 c 0,0.125 0.003906,0.257812 0.015625,0.390625 0.019531,0.125 0.050781,0.257813 0.09375,0.390625 0.039063,0.125 0.085937,0.246094 0.140625,0.359375 0.0625,0.105469 0.132812,0.203125 0.21875,0.296875 0.09375,0.085938 0.195312,0.152344 0.3125,0.203125 0.125,0.054687 0.257812,0.078125 0.40625,0.078125 0.175781,0 0.328125,-0.03125 0.453125,-0.09375 0.132813,-0.0625 0.25,-0.144531 0.34375,-0.25 0.09375,-0.101562 0.164063,-0.222656 0.21875,-0.359375 0.0625,-0.132813 0.101563,-0.285156 0.125,-0.453125 z m 0,0"
               id="path43" />
          </g>
        </g>
      </g>
      <g
         fill="#000000"
         fill-opacity="1"
         id="g49">
        <g
           transform="translate(28.462069,6.464293)"
           id="g48">
          <g
             id="g47">
            <path
               d="M 2.875,-1.28125 H 1.109375 L 0.703125,0 h -0.375 l 1.5,-4.625 h 0.34375 L 3.65625,0 h -0.375 z M 1.21875,-1.625 H 2.765625 L 2,-4.0625 Z m 0,0"
               id="path46" />
          </g>
        </g>
      </g>
      <g
         fill="#000000"
         fill-opacity="1"
         id="g52">
        <g
           transform="translate(32.366222,6.464293)"
           id="g51">
          <g
             id="g50">
            <path
               d="M 3.140625,-1.140625 C 3.140625,-1.242188 3.125,-1.335938 3.09375,-1.421875 3.0625,-1.515625 3.015625,-1.59375 2.953125,-1.65625 2.898438,-1.726562 2.832031,-1.785156 2.75,-1.828125 2.675781,-1.878906 2.59375,-1.925781 2.5,-1.96875 2.414062,-2.007812 2.328125,-2.046875 2.234375,-2.078125 c -0.085937,-0.03125 -0.167969,-0.0625 -0.25,-0.09375 C 1.867188,-2.203125 1.753906,-2.238281 1.640625,-2.28125 1.535156,-2.320312 1.429688,-2.367188 1.328125,-2.421875 1.222656,-2.472656 1.125,-2.535156 1.03125,-2.609375 0.9375,-2.679688 0.851562,-2.757812 0.78125,-2.84375 0.71875,-2.925781 0.664062,-3.019531 0.625,-3.125 0.59375,-3.238281 0.578125,-3.359375 0.578125,-3.484375 0.578125,-3.679688 0.617188,-3.851562 0.703125,-4 0.785156,-4.144531 0.894531,-4.269531 1.03125,-4.375 1.164062,-4.476562 1.320312,-4.554688 1.5,-4.609375 1.675781,-4.660156 1.847656,-4.6875 2.015625,-4.6875 c 0.195313,0 0.382813,0.039062 0.5625,0.109375 0.175781,0.0625 0.332031,0.152344 0.46875,0.265625 C 3.179688,-4.195312 3.289062,-4.054688 3.375,-3.890625 3.457031,-3.722656 3.5,-3.539062 3.5,-3.34375 H 3.125 C 3.101562,-3.488281 3.0625,-3.625 3,-3.75 2.945312,-3.875 2.875,-3.976562 2.78125,-4.0625 2.6875,-4.15625 2.570312,-4.222656 2.4375,-4.265625 2.3125,-4.316406 2.171875,-4.34375 2.015625,-4.34375 c -0.125,0 -0.25,0.015625 -0.375,0.046875 -0.125,0.03125 -0.242187,0.085937 -0.34375,0.15625 C 1.203125,-4.066406 1.125,-3.976562 1.0625,-3.875 1,-3.769531 0.96875,-3.644531 0.96875,-3.5 c 0,0.15625 0.035156,0.292969 0.109375,0.40625 0.070313,0.105469 0.160156,0.195312 0.265625,0.265625 0.113281,0.074219 0.238281,0.136719 0.375,0.1875 0.132812,0.042969 0.257812,0.085937 0.375,0.125 0.113281,0.03125 0.226562,0.070313 0.34375,0.109375 0.113281,0.042969 0.222656,0.09375 0.328125,0.15625 0.113281,0.054688 0.21875,0.117188 0.3125,0.1875 0.09375,0.074219 0.171875,0.15625 0.234375,0.25 0.070312,0.09375 0.125,0.199219 0.15625,0.3125 0.039062,0.105469 0.0625,0.226562 0.0625,0.359375 0,0.199219 -0.046875,0.375 -0.140625,0.53125 -0.085937,0.148437 -0.195313,0.273437 -0.328125,0.375 C 2.925781,-0.128906 2.765625,-0.0507812 2.578125,0 2.398438,0.0390625 2.222656,0.0625 2.046875,0.0625 1.847656,0.0625 1.648438,0.0351562 1.453125,-0.015625 1.265625,-0.078125 1.09375,-0.164062 0.9375,-0.28125 0.789062,-0.394531 0.671875,-0.535156 0.578125,-0.703125 0.484375,-0.878906 0.4375,-1.070312 0.4375,-1.28125 h 0.375 c 0.019531,0.167969 0.0625,0.3125 0.125,0.4375 0.070312,0.125 0.160156,0.234375 0.265625,0.328125 0.113281,0.085937 0.238281,0.148437 0.375,0.1875 0.144531,0.042969 0.300781,0.0625 0.46875,0.0625 0.132813,0 0.265625,-0.015625 0.390625,-0.046875 0.132812,-0.039062 0.253906,-0.09375 0.359375,-0.15625 0.101563,-0.070312 0.1875,-0.160156 0.25,-0.265625 0.0625,-0.113281 0.09375,-0.25 0.09375,-0.40625 z m 0,0"
               id="path49" />
          </g>
        </g>
      </g>
      <g
         fill="#000000"
         fill-opacity="1"
         id="g55">
        <g
           transform="translate(36.270374,6.464293)"
           id="g54">
          <g
             id="g53">
            <path
               d="M 3.609375,-4.28125 H 2.140625 V 0 h -0.375 L 1.78125,-4.28125 H 0.296875 V -4.625 h 3.3125 z m 0,0"
               id="path52" />
          </g>
        </g>
      </g>
      <g
         fill="#000000"
         fill-opacity="1"
         id="g58">
        <g
           transform="translate(40.174526,6.464293)"
           id="g57">
          <g
             id="g56" />
        </g>
      </g>
      <g
         fill="#000000"
         fill-opacity="1"
         id="g61">
        <g
           transform="translate(44.078678,6.464293)"
           id="g60">
          <g
             id="g59">
            <path
               d="M 3.140625,-1.140625 C 3.140625,-1.242188 3.125,-1.335938 3.09375,-1.421875 3.0625,-1.515625 3.015625,-1.59375 2.953125,-1.65625 2.898438,-1.726562 2.832031,-1.785156 2.75,-1.828125 2.675781,-1.878906 2.59375,-1.925781 2.5,-1.96875 2.414062,-2.007812 2.328125,-2.046875 2.234375,-2.078125 c -0.085937,-0.03125 -0.167969,-0.0625 -0.25,-0.09375 C 1.867188,-2.203125 1.753906,-2.238281 1.640625,-2.28125 1.535156,-2.320312 1.429688,-2.367188 1.328125,-2.421875 1.222656,-2.472656 1.125,-2.535156 1.03125,-2.609375 0.9375,-2.679688 0.851562,-2.757812 0.78125,-2.84375 0.71875,-2.925781 0.664062,-3.019531 0.625,-3.125 0.59375,-3.238281 0.578125,-3.359375 0.578125,-3.484375 0.578125,-3.679688 0.617188,-3.851562 0.703125,-4 0.785156,-4.144531 0.894531,-4.269531 1.03125,-4.375 1.164062,-4.476562 1.320312,-4.554688 1.5,-4.609375 1.675781,-4.660156 1.847656,-4.6875 2.015625,-4.6875 c 0.195313,0 0.382813,0.039062 0.5625,0.109375 0.175781,0.0625 0.332031,0.152344 0.46875,0.265625 C 3.179688,-4.195312 3.289062,-4.054688 3.375,-3.890625 3.457031,-3.722656 3.5,-3.539062 3.5,-3.34375 H 3.125 C 3.101562,-3.488281 3.0625,-3.625 3,-3.75 2.945312,-3.875 2.875,-3.976562 2.78125,-4.0625 2.6875,-4.15625 2.570312,-4.222656 2.4375,-4.265625 2.3125,-4.316406 2.171875,-4.34375 2.015625,-4.34375 c -0.125,0 -0.25,0.015625 -0.375,0.046875 -0.125,0.03125 -0.242187,0.085937 -0.34375,0.15625 C 1.203125,-4.066406 1.125,-3.976562 1.0625,-3.875 1,-3.769531 0.96875,-3.644531 0.96875,-3.5 c 0,0.15625 0.035156,0.292969 0.109375,0.40625 0.070313,0.105469 0.160156,0.195312 0.265625,0.265625 0.113281,0.074219 0.238281,0.136719 0.375,0.1875 0.132812,0.042969 0.257812,0.085937 0.375,0.125 0.113281,0.03125 0.226562,0.070313 0.34375,0.109375 0.113281,0.042969 0.222656,0.09375 0.328125,0.15625 0.113281,0.054688 0.21875,0.117188 0.3125,0.1875 0.09375,0.074219 0.171875,0.15625 0.234375,0.25 0.070312,0.09375 0.125,0.199219 0.15625,0.3125 0.039062,0.105469 0.0625,0.226562 0.0625,0.359375 0,0.199219 -0.046875,0.375 -0.140625,0.53125 -0.085937,0.148437 -0.195313,0.273437 -0.328125,0.375 C 2.925781,-0.128906 2.765625,-0.0507812 2.578125,0 2.398438,0.0390625 2.222656,0.0625 2.046875,0.0625 1.847656,0.0625 1.648438,0.0351562 1.453125,-0.015625 1.265625,-0.078125 1.09375,-0.164062 0.9375,-0.28125 0.789062,-0.394531 0.671875,-0.535156 0.578125,-0.703125 0.484375,-0.878906 0.4375,-1.070312 0.4375,-1.28125 h 0.375 c 0.019531,0.167969 0.0625,0.3125 0.125,0.4375 0.070312,0.125 0.160156,0.234375 0.265625,0.328125 0.113281,0.085937 0.238281,0.148437 0.375,0.1875 0.144531,0.042969 0.300781,0.0625 0.46875,0.0625 0.132813,0 0.265625,-0.015625 0.390625,-0.046875 0.132812,-0.039062 0.253906,-0.09375 0.359375,-0.15625 0.101563,-0.070312 0.1875,-0.160156 0.25,-0.265625 0.0625,-0.113281 0.09375,-0.25 0.09375,-0.40625 z m 0,0"
               id="path58" />
          </g>
        </g>
      </g>
      <g
         fill="#000000"
         fill-opacity="1"
         id="g64">
        <g
           transform="translate(47.98283,6.464293)"
           id="g63">
          <g
             id="g62">
            <path
               d="m 3.5,-2 c 0,0.15625 -0.015625,0.320312 -0.046875,0.484375 -0.023437,0.15625 -0.058594,0.3125 -0.109375,0.46875 -0.054688,0.15625 -0.121094,0.304687 -0.203125,0.4375 C 3.054688,-0.472656 2.957031,-0.351562 2.84375,-0.25 c -0.117188,0.09375 -0.246094,0.171875 -0.390625,0.234375 -0.148437,0.0507812 -0.3125,0.078125 -0.5,0.078125 -0.1875,0 -0.355469,-0.0273438 -0.5,-0.078125 C 1.304688,-0.078125 1.175781,-0.15625 1.0625,-0.25 0.945312,-0.351562 0.847656,-0.472656 0.765625,-0.609375 c -0.085937,-0.132813 -0.15625,-0.28125 -0.21875,-0.4375 -0.054687,-0.15625 -0.09375,-0.3125 -0.125,-0.46875 C 0.398438,-1.679688 0.390625,-1.84375 0.390625,-2 v -0.609375 c 0,-0.15625 0.007813,-0.316406 0.03125,-0.484375 0.03125,-0.164062 0.070313,-0.320312 0.125,-0.46875 C 0.609375,-3.71875 0.679688,-3.863281 0.765625,-4 0.847656,-4.132812 0.945312,-4.253906 1.0625,-4.359375 1.175781,-4.460938 1.304688,-4.539062 1.453125,-4.59375 c 0.144531,-0.0625 0.3125,-0.09375 0.5,-0.09375 0.175781,0 0.335937,0.03125 0.484375,0.09375 0.15625,0.054688 0.289062,0.132812 0.40625,0.234375 0.113281,0.105469 0.210938,0.226563 0.296875,0.359375 0.082031,0.136719 0.148437,0.28125 0.203125,0.4375 0.050781,0.148438 0.085938,0.304688 0.109375,0.46875 C 3.484375,-2.925781 3.5,-2.765625 3.5,-2.609375 Z M 3.125,-2.625 C 3.125,-2.738281 3.113281,-2.863281 3.09375,-3 3.082031,-3.132812 3.054688,-3.265625 3.015625,-3.390625 2.972656,-3.515625 2.921875,-3.632812 2.859375,-3.75 2.804688,-3.863281 2.734375,-3.960938 2.640625,-4.046875 2.554688,-4.140625 2.457031,-4.210938 2.34375,-4.265625 2.226562,-4.316406 2.097656,-4.34375 1.953125,-4.34375 c -0.15625,0 -0.292969,0.027344 -0.40625,0.078125 C 1.429688,-4.210938 1.332031,-4.140625 1.25,-4.046875 1.164062,-3.960938 1.09375,-3.863281 1.03125,-3.75 0.96875,-3.632812 0.914062,-3.515625 0.875,-3.390625 0.84375,-3.265625 0.816406,-3.132812 0.796875,-3 0.773438,-2.863281 0.765625,-2.738281 0.765625,-2.625 V -2 c 0,0.125 0.007813,0.257812 0.03125,0.390625 0.019531,0.125 0.046875,0.257813 0.078125,0.390625 0.039062,0.125 0.09375,0.246094 0.15625,0.359375 0.0625,0.117187 0.132812,0.214844 0.21875,0.296875 0.082031,0.085938 0.179688,0.152344 0.296875,0.203125 0.125,0.054687 0.257813,0.078125 0.40625,0.078125 0.144531,0 0.273437,-0.023438 0.390625,-0.078125 C 2.457031,-0.410156 2.554688,-0.476562 2.640625,-0.5625 2.734375,-0.644531 2.8125,-0.742188 2.875,-0.859375 2.9375,-0.972656 2.984375,-1.09375 3.015625,-1.21875 3.054688,-1.351562 3.082031,-1.484375 3.09375,-1.609375 3.113281,-1.742188 3.125,-1.875 3.125,-2 Z m 0,0"
               id="path61" />
          </g>
        </g>
      </g>
      <g
         fill="#000000"
         fill-opacity="1"
         id="g67">
        <g
           transform="translate(51.886983,6.464293)"
           id="g66">
          <g
             id="g65">
            <path
               d="M 0.609375,0 V -4.625 H 1.875 c 0.1875,0 0.367188,0.027344 0.546875,0.078125 0.175781,0.054687 0.332031,0.125 0.46875,0.21875 0.132813,0.09375 0.242187,0.21875 0.328125,0.375 0.09375,0.15625 0.132812,0.339844 0.125,0.546875 0,0.125 -0.023438,0.242188 -0.0625,0.34375 C 3.25,-2.957031 3.195312,-2.863281 3.125,-2.78125 3.050781,-2.695312 2.96875,-2.625 2.875,-2.5625 2.789062,-2.5 2.691406,-2.453125 2.578125,-2.421875 c 0.132813,0.03125 0.257813,0.085937 0.375,0.15625 0.113281,0.0625 0.210937,0.148437 0.296875,0.25 0.082031,0.09375 0.144531,0.203125 0.1875,0.328125 0.050781,0.117188 0.078125,0.246094 0.078125,0.390625 0,0.199219 -0.042969,0.382813 -0.125,0.546875 -0.074219,0.15625 -0.179687,0.292969 -0.3125,0.40625 -0.136719,0.105469 -0.292969,0.1875 -0.46875,0.25 C 2.441406,-0.03125 2.257812,0 2.0625,0 Z M 1,-2.21875 v 1.890625 h 1.078125 c 0.132813,0 0.265625,-0.019531 0.390625,-0.0625 0.132812,-0.050781 0.25,-0.117187 0.34375,-0.203125 0.09375,-0.082031 0.164062,-0.179688 0.21875,-0.296875 0.0625,-0.113281 0.09375,-0.25 0.09375,-0.40625 0,-0.144531 -0.027344,-0.273437 -0.078125,-0.390625 -0.054687,-0.113281 -0.125,-0.207031 -0.21875,-0.28125 C 2.734375,-2.050781 2.625,-2.113281 2.5,-2.15625 2.375,-2.195312 2.242188,-2.21875 2.109375,-2.21875 Z M 1,-2.546875 H 1.921875 C 2.054688,-2.546875 2.1875,-2.5625 2.3125,-2.59375 2.4375,-2.632812 2.546875,-2.691406 2.640625,-2.765625 2.742188,-2.835938 2.820312,-2.925781 2.875,-3.03125 2.9375,-3.144531 2.96875,-3.273438 2.96875,-3.421875 2.96875,-3.578125 2.9375,-3.707031 2.875,-3.8125 2.8125,-3.925781 2.726562,-4.015625 2.625,-4.078125 2.53125,-4.148438 2.414062,-4.203125 2.28125,-4.234375 2.15625,-4.265625 2.023438,-4.28125 1.890625,-4.28125 H 1 Z m 0,0"
               id="path64" />
          </g>
        </g>
      </g>
      <g
         fill="#000000"
         fill-opacity="1"
         id="g70">
        <g
           transform="translate(55.791135,6.464293)"
           id="g69">
          <g
             id="g68">
            <path
               d="M 2.171875,-1.9375 H 1.015625 V 0 h -0.375 v -4.625 h 1.3125 c 0.195313,0.011719 0.382813,0.046875 0.5625,0.109375 C 2.703125,-4.460938 2.863281,-4.375 3,-4.25 c 0.132812,0.117188 0.238281,0.257812 0.3125,0.421875 0.082031,0.167969 0.125,0.355469 0.125,0.5625 0,0.15625 -0.027344,0.304687 -0.078125,0.4375 -0.042969,0.125 -0.105469,0.242187 -0.1875,0.34375 C 3.085938,-2.390625 2.988281,-2.300781 2.875,-2.21875 2.769531,-2.144531 2.648438,-2.078125 2.515625,-2.015625 l 1.0625,1.96875 V 0 H 3.171875 Z M 1.015625,-2.25 H 2.03125 C 2.175781,-2.257812 2.3125,-2.285156 2.4375,-2.328125 2.5625,-2.378906 2.664062,-2.445312 2.75,-2.53125 2.84375,-2.625 2.914062,-2.734375 2.96875,-2.859375 c 0.050781,-0.125 0.078125,-0.257813 0.078125,-0.40625 0,-0.15625 -0.03125,-0.296875 -0.09375,-0.421875 C 2.898438,-3.820312 2.820312,-3.929688 2.71875,-4.015625 2.625,-4.109375 2.507812,-4.175781 2.375,-4.21875 2.25,-4.269531 2.109375,-4.296875 1.953125,-4.296875 h -0.9375 z m 0,0"
               id="path67" />
          </g>
        </g>
      </g>
      <g
         fill="#000000"
         fill-opacity="1"
         id="g73">
        <g
           transform="translate(59.695287,6.464293)"
           id="g72">
          <g
             id="g71">
            <path
               d="m 3.046875,-2.21875 h -2.03125 v 1.890625 h 2.34375 V 0 h -2.71875 v -4.625 h 2.71875 v 0.34375 h -2.34375 v 1.734375 h 2.03125 z m 0,0"
               id="path70" />
          </g>
        </g>
      </g>
      <g
         fill="#000000"
         fill-opacity="1"
         id="g76">
        <g
           transform="translate(63.599439,6.464293)"
           id="g75">
          <g
             id="g74" />
        </g>
      </g>
      <g
         fill="#000000"
         fill-opacity="1"
         id="g79">
        <g
           transform="translate(67.503592,6.464293)"
           id="g78">
          <g
             id="g77">
            <path
               d="m 3.484375,-1.40625 c -0.023437,0.210938 -0.074219,0.402344 -0.15625,0.578125 -0.074219,0.179687 -0.179687,0.335937 -0.3125,0.46875 -0.125,0.136719 -0.277344,0.242187 -0.453125,0.3125 C 2.382812,0.0234375 2.1875,0.0625 1.96875,0.0625 c -0.1875,0 -0.355469,-0.0273438 -0.5,-0.078125 C 1.320312,-0.078125 1.1875,-0.15625 1.0625,-0.25 0.945312,-0.34375 0.847656,-0.457031 0.765625,-0.59375 0.679688,-0.726562 0.613281,-0.867188 0.5625,-1.015625 0.507812,-1.171875 0.46875,-1.328125 0.4375,-1.484375 0.414062,-1.648438 0.398438,-1.8125 0.390625,-1.96875 V -2.640625 C 0.398438,-2.804688 0.414062,-2.96875 0.4375,-3.125 0.46875,-3.289062 0.507812,-3.445312 0.5625,-3.59375 0.613281,-3.75 0.679688,-3.890625 0.765625,-4.015625 c 0.082031,-0.132813 0.179687,-0.25 0.296875,-0.34375 0.125,-0.101563 0.257812,-0.179687 0.40625,-0.234375 0.144531,-0.0625 0.3125,-0.09375 0.5,-0.09375 0.21875,0 0.414062,0.039062 0.59375,0.109375 0.175781,0.074219 0.328125,0.179687 0.453125,0.3125 0.132813,0.136719 0.238281,0.292969 0.3125,0.46875 0.082031,0.179687 0.132813,0.375 0.15625,0.59375 h -0.375 c -0.023437,-0.164063 -0.0625,-0.316406 -0.125,-0.453125 -0.054687,-0.132812 -0.125,-0.253906 -0.21875,-0.359375 -0.09375,-0.113281 -0.210937,-0.195313 -0.34375,-0.25 -0.125,-0.0625 -0.277344,-0.09375 -0.453125,-0.09375 -0.148438,0 -0.28125,0.027344 -0.40625,0.078125 -0.117188,0.054688 -0.21875,0.121094 -0.3125,0.203125 -0.085938,0.085937 -0.15625,0.183594 -0.21875,0.296875 -0.054688,0.117188 -0.101562,0.234375 -0.140625,0.359375 -0.042969,0.125 -0.074219,0.257813 -0.09375,0.390625 -0.011719,0.125 -0.015625,0.25 -0.015625,0.375 v 0.6875 c 0,0.125 0.003906,0.257812 0.015625,0.390625 0.019531,0.125 0.050781,0.257813 0.09375,0.390625 0.039063,0.125 0.085937,0.246094 0.140625,0.359375 0.0625,0.105469 0.132812,0.203125 0.21875,0.296875 0.09375,0.085938 0.195312,0.152344 0.3125,0.203125 0.125,0.054687 0.257812,0.078125 0.40625,0.078125 0.175781,0 0.328125,-0.03125 0.453125,-0.09375 0.132813,-0.0625 0.25,-0.144531 0.34375,-0.25 0.09375,-0.101562 0.164063,-0.222656 0.21875,-0.359375 0.0625,-0.132813 0.101563,-0.285156 0.125,-0.453125 z m 0,0"
               id="path76" />
          </g>
        </g>
      </g>
      <g
         fill="#000000"
         fill-opacity="1"
         id="g82">
        <g
           transform="translate(71.407744,6.464293)"
           id="g81">
          <g
             id="g80">
            <path
               d="M 0.609375,-4.625 H 3.28125 v 0.34375 H 2.125 v 3.9375 H 3.28125 V 0 H 0.609375 v -0.34375 h 1.125 v -3.9375 h -1.125 z m 0,0"
               id="path79" />
          </g>
        </g>
      </g>
      <g
         fill="#000000"
         fill-opacity="1"
         id="g85">
        <g
           transform="translate(75.311896,6.464293)"
           id="g84">
          <g
             id="g83">
            <path
               d="m 3.046875,-2.21875 h -2.03125 v 1.890625 h 2.34375 V 0 h -2.71875 v -4.625 h 2.71875 v 0.34375 h -2.34375 v 1.734375 h 2.03125 z m 0,0"
               id="path82" />
          </g>
        </g>
      </g>
      <g
         fill="#000000"
         fill-opacity="1"
         id="g88">
        <g
           transform="translate(79.216048,6.464293)"
           id="g87">
          <g
             id="g86">
            <path
               d="m 3.390625,0 h -0.375 l -2.125,-3.90625 V 0 h -0.375 v -4.625 h 0.375 l 2.125,3.890625 V -4.625 h 0.375 z m 0,0"
               id="path85" />
          </g>
        </g>
      </g>
      <g
         fill="#000000"
         fill-opacity="1"
         id="g91">
        <g
           transform="translate(83.120201,6.464293)"
           id="g90">
          <g
             id="g89">
            <path
               d="m 3.484375,-1.40625 c -0.023437,0.210938 -0.074219,0.402344 -0.15625,0.578125 -0.074219,0.179687 -0.179687,0.335937 -0.3125,0.46875 -0.125,0.136719 -0.277344,0.242187 -0.453125,0.3125 C 2.382812,0.0234375 2.1875,0.0625 1.96875,0.0625 c -0.1875,0 -0.355469,-0.0273438 -0.5,-0.078125 C 1.320312,-0.078125 1.1875,-0.15625 1.0625,-0.25 0.945312,-0.34375 0.847656,-0.457031 0.765625,-0.59375 0.679688,-0.726562 0.613281,-0.867188 0.5625,-1.015625 0.507812,-1.171875 0.46875,-1.328125 0.4375,-1.484375 0.414062,-1.648438 0.398438,-1.8125 0.390625,-1.96875 V -2.640625 C 0.398438,-2.804688 0.414062,-2.96875 0.4375,-3.125 0.46875,-3.289062 0.507812,-3.445312 0.5625,-3.59375 0.613281,-3.75 0.679688,-3.890625 0.765625,-4.015625 c 0.082031,-0.132813 0.179687,-0.25 0.296875,-0.34375 0.125,-0.101563 0.257812,-0.179687 0.40625,-0.234375 0.144531,-0.0625 0.3125,-0.09375 0.5,-0.09375 0.21875,0 0.414062,0.039062 0.59375,0.109375 0.175781,0.074219 0.328125,0.179687 0.453125,0.3125 0.132813,0.136719 0.238281,0.292969 0.3125,0.46875 0.082031,0.179687 0.132813,0.375 0.15625,0.59375 h -0.375 c -0.023437,-0.164063 -0.0625,-0.316406 -0.125,-0.453125 -0.054687,-0.132812 -0.125,-0.253906 -0.21875,-0.359375 -0.09375,-0.113281 -0.210937,-0.195313 -0.34375,-0.25 -0.125,-0.0625 -0.277344,-0.09375 -0.453125,-0.09375 -0.148438,0 -0.28125,0.027344 -0.40625,0.078125 -0.117188,0.054688 -0.21875,0.121094 -0.3125,0.203125 -0.085938,0.085937 -0.15625,0.183594 -0.21875,0.296875 -0.054688,0.117188 -0.101562,0.234375 -0.140625,0.359375 -0.042969,0.125 -0.074219,0.257813 -0.09375,0.390625 -0.011719,0.125 -0.015625,0.25 -0.015625,0.375 v 0.6875 c 0,0.125 0.003906,0.257812 0.015625,0.390625 0.019531,0.125 0.050781,0.257813 0.09375,0.390625 0.039063,0.125 0.085937,0.246094 0.140625,0.359375 0.0625,0.105469 0.132812,0.203125 0.21875,0.296875 0.09375,0.085938 0.195312,0.152344 0.3125,0.203125 0.125,0.054687 0.257812,0.078125 0.40625,0.078125 0.175781,0 0.328125,-0.03125 0.453125,-0.09375 0.132813,-0.0625 0.25,-0.144531 0.34375,-0.25 0.09375,-0.101562 0.164063,-0.222656 0.21875,-0.359375 0.0625,-0.132813 0.101563,-0.285156 0.125,-0.453125 z m 0,0"
               id="path88" />
          </g>
        </g>
      </g>
      <g
         fill="#000000"
         fill-opacity="1"
         id="g94">
        <g
           transform="translate(87.024353,6.464293)"
           id="g93">
          <g
             id="g92">
            <path
               d="M 0.609375,-4.625 H 3.28125 v 0.34375 H 2.125 v 3.9375 H 3.28125 V 0 H 0.609375 v -0.34375 h 1.125 v -3.9375 h -1.125 z m 0,0"
               id="path91" />
          </g>
        </g>
      </g>
      <g
         fill="#000000"
         fill-opacity="1"
         id="g97">
        <g
           transform="translate(90.928505,6.464293)"
           id="g96">
          <g
             id="g95">
            <path
               d="M 2.875,-1.28125 H 1.109375 L 0.703125,0 h -0.375 l 1.5,-4.625 h 0.34375 L 3.65625,0 h -0.375 z M 1.21875,-1.625 H 2.765625 L 2,-4.0625 Z m 0,0"
               id="path94" />
          </g>
        </g>
      </g>
    </g>
  </g>
  <g
     transform="matrix(1.9189686,0,0,1.9189686,42.217309,45.500545)"
     id="g119">
    <g
       clip-path="url(#a29fc9c821)"
       id="g118">
      <g
         fill="#000000"
         fill-opacity="1"
         id="g102">
        <g
           transform="translate(1.161309,21.10938)"
           id="g101">
          <g
             id="g100">
            <path
               d="m 1.71875,0 v -14.140625 h 3.421875 c 0.90625,0.01172 1.710937,0.1875 2.421875,0.53125 0.71875,0.34375 1.320312,0.808594 1.8125,1.390625 0.488281,0.574219 0.863281,1.246094 1.125,2.015625 0.257812,0.761719 0.394531,1.574219 0.40625,2.4375 V -6.375 C 10.89453,-5.5 10.757812,-4.675781 10.5,-3.90625 c -0.261719,0.761719 -0.636719,1.429688 -1.125,2 C 8.882812,-1.332031 8.28125,-0.875 7.5625,-0.53125 6.851562,-0.1875 6.046875,-0.0078125 5.140625,0 Z m 1.171875,-13.15625 v 12.171875 h 2.25 c 0.757813,-0.007813 1.425781,-0.160156 2,-0.453125 C 7.710938,-1.738281 8.1875,-2.132812 8.5625,-2.625 8.945312,-3.125 9.238281,-3.695312 9.4375,-4.34375 9.632812,-4.988281 9.734375,-5.664062 9.734375,-6.375 v -1.421875 c 0,-0.695313 -0.101563,-1.363281 -0.296875,-2 -0.199219,-0.644531 -0.492188,-1.210937 -0.875,-1.703125 -0.375,-0.488281 -0.851562,-0.878906 -1.421875,-1.171875 -0.574219,-0.300781 -1.242187,-0.460937 -2,-0.484375 z m 0,0"
               id="path99" />
          </g>
        </g>
      </g>
      <g
         fill="#000000"
         fill-opacity="1"
         id="g105">
        <g
           transform="translate(13.096315,21.10938)"
           id="g104">
          <g
             id="g103">
            <path
               d="m 6.359375,0.1875 c -0.730469,0 -1.398437,-0.1367188 -2,-0.40625 C 3.753906,-0.488281 3.238281,-0.851562 2.8125,-1.3125 c -0.429688,-0.46875 -0.761719,-1.015625 -1,-1.640625 -0.242188,-0.625 -0.359375,-1.289063 -0.359375,-2 V -5.375 c 0,-0.75 0.117187,-1.445312 0.359375,-2.09375 0.25,-0.644531 0.582031,-1.207031 1,-1.6875 0.425781,-0.476562 0.921875,-0.851562 1.484375,-1.125 0.570313,-0.28125 1.1875,-0.421875 1.84375,-0.421875 0.695313,0 1.3125,0.125 1.84375,0.375 0.539063,0.25 0.992187,0.59375 1.359375,1.03125 0.363281,0.4375 0.640625,0.949219 0.828125,1.53125 0.195313,0.585937 0.300781,1.210937 0.3125,1.875 v 0.71875 h -7.875 v 0.21875 c 0.00781,0.554687 0.101563,1.078125 0.28125,1.578125 0.1875,0.5 0.441406,0.945312 0.765625,1.328125 0.332031,0.386719 0.734375,0.695313 1.203125,0.921875 0.46875,0.230469 0.984375,0.34375 1.546875,0.34375 0.644531,0 1.226562,-0.117188 1.75,-0.359375 C 8.6875,-1.390625 9.140625,-1.75 9.515625,-2.21875 L 10.25,-1.65625 c -0.199219,0.273438 -0.433594,0.523438 -0.703125,0.75 C 9.285156,-0.675781 8.988281,-0.476562 8.65625,-0.3125 8.332031,-0.15625 7.976562,-0.0351562 7.59375,0.046875 7.207031,0.140625 6.796875,0.1875 6.359375,0.1875 Z m -0.21875,-9.90625 c -0.480469,0 -0.917969,0.09375 -1.3125,0.28125 -0.386719,0.179688 -0.730469,0.429688 -1.03125,0.75 -0.304687,0.3125 -0.554687,0.683594 -0.75,1.109375 -0.1875,0.429687 -0.320313,0.898437 -0.390625,1.40625 H 9.3125 v -0.125 c -0.011719,-0.425781 -0.089844,-0.84375 -0.234375,-1.25 -0.148437,-0.414063 -0.355469,-0.78125 -0.625,-1.09375 C 8.179688,-8.960938 7.851562,-9.222656 7.46875,-9.421875 7.082031,-9.617188 6.640625,-9.71875 6.140625,-9.71875 Z m 0,0"
               id="path102" />
          </g>
        </g>
      </g>
      <g
         fill="#000000"
         fill-opacity="1"
         id="g108">
        <g
           transform="translate(30.283915,21.10938)"
           id="g107">
          <g
             id="g106">
            <path
               d="m 6.359375,0.1875 c -0.730469,0 -1.398437,-0.1367188 -2,-0.40625 C 3.753906,-0.488281 3.238281,-0.851562 2.8125,-1.3125 c -0.429688,-0.46875 -0.761719,-1.015625 -1,-1.640625 -0.242188,-0.625 -0.359375,-1.289063 -0.359375,-2 V -5.375 c 0,-0.75 0.117187,-1.445312 0.359375,-2.09375 0.25,-0.644531 0.582031,-1.207031 1,-1.6875 0.425781,-0.476562 0.921875,-0.851562 1.484375,-1.125 0.570313,-0.28125 1.1875,-0.421875 1.84375,-0.421875 0.695313,0 1.3125,0.125 1.84375,0.375 0.539063,0.25 0.992187,0.59375 1.359375,1.03125 0.363281,0.4375 0.640625,0.949219 0.828125,1.53125 0.195313,0.585937 0.300781,1.210937 0.3125,1.875 v 0.71875 h -7.875 v 0.21875 c 0.00781,0.554687 0.101563,1.078125 0.28125,1.578125 0.1875,0.5 0.441406,0.945312 0.765625,1.328125 0.332031,0.386719 0.734375,0.695313 1.203125,0.921875 0.46875,0.230469 0.984375,0.34375 1.546875,0.34375 0.644531,0 1.226562,-0.117188 1.75,-0.359375 C 8.6875,-1.390625 9.140625,-1.75 9.515625,-2.21875 L 10.25,-1.65625 c -0.199219,0.273438 -0.433594,0.523438 -0.703125,0.75 C 9.285156,-0.675781 8.988281,-0.476562 8.65625,-0.3125 8.332031,-0.15625 7.976562,-0.0351562 7.59375,0.046875 7.207031,0.140625 6.796875,0.1875 6.359375,0.1875 Z m -0.21875,-9.90625 c -0.480469,0 -0.917969,0.09375 -1.3125,0.28125 -0.386719,0.179688 -0.730469,0.429688 -1.03125,0.75 -0.304687,0.3125 -0.554687,0.683594 -0.75,1.109375 -0.1875,0.429687 -0.320313,0.898437 -0.390625,1.40625 H 9.3125 v -0.125 c -0.011719,-0.425781 -0.089844,-0.84375 -0.234375,-1.25 -0.148437,-0.414063 -0.355469,-0.78125 -0.625,-1.09375 C 8.179688,-8.960938 7.851562,-9.222656 7.46875,-9.421875 7.082031,-9.617188 6.640625,-9.71875 6.140625,-9.71875 Z m 0,0"
               id="path105" />
          </g>
        </g>
      </g>
      <g
         fill="#000000"
         fill-opacity="1"
         id="g111">
        <g
           transform="translate(42.218921,21.10938)"
           id="g110">
          <g
             id="g109">
            <path
               d="m 9.203125,-2.671875 c 0,-0.320313 -0.085937,-0.601563 -0.25,-0.84375 C 8.796875,-3.753906 8.578125,-3.957031 8.296875,-4.125 8.015625,-4.300781 7.6875,-4.445312 7.3125,-4.5625 6.945312,-4.675781 6.554688,-4.773438 6.140625,-4.859375 c -0.5,-0.101563 -0.992187,-0.226563 -1.46875,-0.375 C 4.203125,-5.378906 3.78125,-5.566406 3.40625,-5.796875 3.039062,-6.023438 2.75,-6.300781 2.53125,-6.625 2.3125,-6.957031 2.203125,-7.363281 2.203125,-7.84375 c 0,-0.445312 0.113281,-0.847656 0.34375,-1.203125 0.226563,-0.363281 0.523437,-0.664063 0.890625,-0.90625 0.363281,-0.25 0.78125,-0.4375 1.25,-0.5625 0.476562,-0.125 0.96875,-0.1875 1.46875,-0.1875 0.570312,0 1.101562,0.07422 1.59375,0.21875 0.5,0.136719 0.929688,0.339844 1.296875,0.609375 0.375,0.261719 0.671875,0.589844 0.890625,0.984375 0.226562,0.386719 0.347656,0.828125 0.359375,1.328125 H 9.140625 C 9.128906,-7.90625 9.035156,-8.207031 8.859375,-8.46875 8.691406,-8.738281 8.46875,-8.960938 8.1875,-9.140625 7.914062,-9.328125 7.601562,-9.46875 7.25,-9.5625 6.894531,-9.664062 6.53125,-9.71875 6.15625,-9.71875 c -0.34375,0 -0.6875,0.042969 -1.03125,0.125 -0.335938,0.074219 -0.632812,0.1875 -0.890625,0.34375 -0.261719,0.148438 -0.46875,0.335938 -0.625,0.5625 -0.15625,0.230469 -0.234375,0.5 -0.234375,0.8125 -0.011719,0.335938 0.0625,0.609375 0.21875,0.828125 0.164062,0.21875 0.382812,0.40625 0.65625,0.5625 0.269531,0.15625 0.585938,0.289063 0.953125,0.390625 C 5.566406,-6 5.957031,-5.910156 6.375,-5.828125 c 0.53125,0.117187 1.035156,0.25 1.515625,0.40625 0.476563,0.15625 0.898437,0.355469 1.265625,0.59375 0.375,0.230469 0.664062,0.515625 0.875,0.859375 0.21875,0.34375 0.328125,0.757812 0.328125,1.234375 0,0.5 -0.121094,0.933594 -0.359375,1.296875 C 9.769531,-1.070312 9.460938,-0.769531 9.078125,-0.53125 8.691406,-0.289062 8.25,-0.113281 7.75,0 7.257812,0.125 6.75,0.1875 6.21875,0.1875 5.632812,0.1875 5.082031,0.117188 4.5625,-0.015625 4.039062,-0.160156 3.578125,-0.367188 3.171875,-0.640625 2.773438,-0.910156 2.457031,-1.238281 2.21875,-1.625 1.976562,-2.007812 1.847656,-2.445312 1.828125,-2.9375 H 3 c 0.039062,0.40625 0.164062,0.75 0.375,1.03125 0.207031,0.28125 0.460938,0.507812 0.765625,0.671875 0.3125,0.167969 0.648437,0.289063 1.015625,0.359375 0.363281,0.0625 0.71875,0.09375 1.0625,0.09375 0.363281,0 0.71875,-0.035156 1.0625,-0.109375 0.351562,-0.082031 0.671875,-0.195313 0.953125,-0.34375 0.28125,-0.15625 0.507813,-0.347656 0.6875,-0.578125 0.1875,-0.238281 0.28125,-0.523438 0.28125,-0.859375 z m 0,0"
               id="path108" />
          </g>
        </g>
      </g>
      <g
         fill="#000000"
         fill-opacity="1"
         id="g114">
        <g
           transform="translate(54.153927,21.10938)"
           id="g113">
          <g
             id="g112">
            <path
               d="m 5.75,-13.203125 v 2.6875 H 9.640625 V -9.5625 H 5.75 v 6.625 c 0.00781,0.40625 0.070312,0.746094 0.1875,1.015625 0.125,0.261719 0.285156,0.476563 0.484375,0.640625 0.207031,0.167969 0.445313,0.289062 0.71875,0.359375 0.28125,0.074219 0.582031,0.109375 0.90625,0.109375 0.320313,0 0.648437,-0.019531 0.984375,-0.0625 0.34375,-0.050781 0.632812,-0.097656 0.875,-0.140625 l 0.171875,0.875 c -0.28125,0.1171875 -0.625,0.1953125 -1.03125,0.25 C 8.648438,0.160156 8.25,0.1875 7.84375,0.1875 7.375,0.1875 6.941406,0.128906 6.546875,0.015625 6.148438,-0.0859375 5.804688,-0.265625 5.515625,-0.515625 5.222656,-0.765625 4.992188,-1.085938 4.828125,-1.484375 4.660156,-1.890625 4.570312,-2.378906 4.5625,-2.953125 V -9.5625 H 1.640625 v -0.953125 H 4.5625 v -2.6875 z m 0,0"
               id="path111" />
          </g>
        </g>
      </g>
      <g
         fill="#000000"
         fill-opacity="1"
         id="g117">
        <g
           transform="translate(66.088933,21.10938)"
           id="g116">
          <g
             id="g115">
            <path
               d="M 1.265625,-5.40625 C 1.273438,-6.125 1.382812,-6.800781 1.59375,-7.4375 1.8125,-8.082031 2.117188,-8.644531 2.515625,-9.125 c 0.40625,-0.476562 0.894531,-0.859375 1.46875,-1.140625 0.582031,-0.289063 1.238281,-0.4375 1.96875,-0.4375 0.738281,0 1.394531,0.148437 1.96875,0.4375 0.582031,0.28125 1.070313,0.664063 1.46875,1.140625 0.40625,0.480469 0.710937,1.042969 0.921875,1.6875 0.21875,0.636719 0.332031,1.3125 0.34375,2.03125 v 0.3125 C 10.644531,-4.375 10.535156,-3.691406 10.328125,-3.046875 10.117188,-2.410156 9.8125,-1.851562 9.40625,-1.375 9.007812,-0.894531 8.519531,-0.515625 7.9375,-0.234375 7.363281,0.046875 6.707031,0.1875 5.96875,0.1875 5.226562,0.1875 4.566406,0.046875 3.984375,-0.234375 3.410156,-0.515625 2.921875,-0.894531 2.515625,-1.375 2.117188,-1.851562 1.8125,-2.410156 1.59375,-3.046875 1.382812,-3.691406 1.273438,-4.375 1.265625,-5.09375 Z m 1.171875,0.3125 c 0,0.5625 0.078125,1.105469 0.234375,1.625 0.15625,0.511719 0.378906,0.96875 0.671875,1.375 0.300781,0.398438 0.671875,0.714844 1.109375,0.953125 0.4375,0.242187 0.941406,0.359375 1.515625,0.359375 0.570312,0 1.078125,-0.117188 1.515625,-0.359375 0.4375,-0.238281 0.800781,-0.554687 1.09375,-0.953125 C 8.867188,-2.5 9.09375,-2.957031 9.25,-3.46875 c 0.15625,-0.519531 0.234375,-1.0625 0.234375,-1.625 v -0.3125 C 9.484375,-5.957031 9.40625,-6.492188 9.25,-7.015625 9.09375,-7.535156 8.863281,-7.992188 8.5625,-8.390625 8.269531,-8.785156 7.90625,-9.101562 7.46875,-9.34375 c -0.4375,-0.25 -0.945312,-0.375 -1.515625,-0.375 -0.574219,0 -1.078125,0.125 -1.515625,0.375 C 4,-9.101562 3.632812,-8.785156 3.34375,-8.390625 3.050781,-7.992188 2.828125,-7.535156 2.671875,-7.015625 2.515625,-6.492188 2.4375,-5.957031 2.4375,-5.40625 Z m 0,0"
               id="path114" />
          </g>
        </g>
      </g>
    </g>
  </g>
  <g
     transform="matrix(1.9189686,0,0,1.9189686,0,83.879917)"
     id="g164">
    <g
       clip-path="url(#566bff7fa0)"
       id="g163">
      <g
         fill="#000000"
         fill-opacity="1"
         id="g122">
        <g
           transform="translate(98.784055,40.706702)"
           id="g121">
          <g
             id="g120">
            <path
               d="M 6.09375,4.734375 C 6.863281,4.710938 7.503906,4.5 8.015625,4.09375 8.535156,3.6875 8.945312,3.171875 9.25,2.546875 9.5625,1.929688 9.78125,1.234375 9.90625,0.453125 10.039062,-0.316406 10.109375,-1.09375 10.109375,-1.875 v -3.1875 c 0,-1.488281 0.34375,-2.800781 1.03125,-3.9375 0.695313,-1.144531 1.78125,-2.007812 3.25,-2.59375 -1.46875,-0.582031 -2.554687,-1.441406 -3.25,-2.578125 -0.6875,-1.144531 -1.03125,-2.472656 -1.03125,-3.984375 v -3.203125 c 0,-0.769531 -0.04297,-1.546875 -0.125,-2.328125 -0.074219,-0.78125 -0.246094,-1.484375 -0.515625,-2.109375 -0.273438,-0.625 -0.671875,-1.132813 -1.203125,-1.53125 -0.53125,-0.40625 -1.25,-0.617187 -2.15625,-0.640625 L 6.5,-30.140625 c 0.863281,0.02344 1.640625,0.164063 2.328125,0.421875 0.6875,0.25 1.289063,0.589844 1.8125,1.015625 0.53125,0.429687 0.976563,0.921875 1.34375,1.484375 0.375,0.5625 0.679687,1.171875 0.921875,1.828125 0.238281,0.648437 0.414062,1.3125 0.53125,2 0.113281,0.6875 0.171875,1.367187 0.171875,2.03125 v 3.203125 c 0,1.824219 0.429687,3.140625 1.296875,3.953125 0.875,0.8125 2.191406,1.21875 3.953125,1.21875 V -10.25 c -1.761719,0.01172 -3.078125,0.429688 -3.953125,1.25 -0.867188,0.8125 -1.296875,2.125 -1.296875,3.9375 v 3.1875 c 0,1.011719 -0.140625,2.023438 -0.421875,3.046875 -0.273438,1.03125 -0.703125,1.96875 -1.296875,2.8125 C 11.304688,4.828125 10.566406,5.519531 9.671875,6.0625 8.785156,6.601562 7.726562,6.882812 6.5,6.90625 Z m 0,0"
               id="path119" />
          </g>
        </g>
      </g>
      <g
         clip-path="url(#2c300e57a2)"
         id="g140">
        <g
           transform="translate(27,22)"
           id="g139">
          <g
             clip-path="url(#cf7b1cd2c4)"
             id="g138">
            <g
               fill="#000000"
               fill-opacity="1"
               id="g125">
              <g
                 transform="translate(1.005005,23.894351)"
                 id="g124">
                <g
                   id="g123">
                  <path
                     d="m 6.90625,-14.640625 v 2.859375 h 4.453125 v 1.9375 H 6.90625 v 5.65625 c 0,0.4375 0.050781,0.804688 0.15625,1.09375 0.101562,0.292969 0.25,0.527344 0.4375,0.703125 0.195312,0.167969 0.421875,0.289063 0.671875,0.359375 0.25,0.074219 0.53125,0.109375 0.84375,0.109375 0.21875,0 0.445313,-0.00781 0.6875,-0.03125 0.25,-0.03125 0.488281,-0.0625 0.71875,-0.09375 0.226563,-0.039063 0.4375,-0.078125 0.625,-0.109375 0.195313,-0.039062 0.359375,-0.082031 0.484375,-0.125 l 0.296875,1.796875 c -0.1875,0.117187 -0.417969,0.21875 -0.6875,0.3125 -0.261719,0.0859375 -0.546875,0.1523438 -0.859375,0.203125 -0.3125,0.0625 -0.640625,0.109375 -0.984375,0.140625 -0.335937,0.039063 -0.664063,0.0625 -0.984375,0.0625 -0.585938,0 -1.125,-0.085937 -1.625,-0.25 C 6.195312,-0.179688 5.773438,-0.4375 5.421875,-0.78125 5.078125,-1.125 4.800781,-1.566406 4.59375,-2.109375 4.394531,-2.648438 4.296875,-3.296875 4.296875,-4.046875 V -9.84375 h -2.875 v -1.9375 h 2.875 v -2.859375 z m 0,0"
                     id="path122" />
                </g>
              </g>
            </g>
            <g
               fill="#000000"
               fill-opacity="1"
               id="g128">
              <g
                 transform="translate(14.396183,23.894351)"
                 id="g127">
                <g
                   id="g126">
                  <path
                     d="m 7.171875,0.21875 c -0.867187,0 -1.65625,-0.1484375 -2.375,-0.4375 C 4.078125,-0.507812 3.457031,-0.90625 2.9375,-1.40625 2.425781,-1.914062 2.03125,-2.519531 1.75,-3.21875 1.46875,-3.914062 1.328125,-4.664062 1.328125,-5.46875 v -0.453125 c 0,-0.9375 0.148437,-1.773437 0.453125,-2.515625 0.300781,-0.75 0.703125,-1.390625 1.203125,-1.921875 0.507813,-0.53125 1.097656,-0.9375 1.765625,-1.21875 C 5.425781,-11.859375 6.132812,-12 6.875,-12 c 0.851562,0 1.609375,0.148438 2.265625,0.4375 0.65625,0.28125 1.203125,0.683594 1.640625,1.203125 0.4375,0.511719 0.765625,1.125 0.984375,1.84375 0.226563,0.710937 0.34375,1.492187 0.34375,2.34375 v 1.09375 H 3.9375 c 0.050781,0.460937 0.164062,0.886719 0.34375,1.28125 0.175781,0.386719 0.410156,0.726563 0.703125,1.015625 0.300781,0.28125 0.648437,0.507812 1.046875,0.671875 0.394531,0.167969 0.828125,0.25 1.296875,0.25 0.664063,0 1.273437,-0.128906 1.828125,-0.390625 0.550781,-0.257812 1.003906,-0.617188 1.359375,-1.078125 L 11.9375,-2 c -0.199219,0.28125 -0.449219,0.558594 -0.75,0.828125 -0.292969,0.261719 -0.636719,0.496094 -1.03125,0.703125 -0.398438,0.210938 -0.84375,0.375 -1.34375,0.5 -0.5,0.125 -1.046875,0.1875 -1.640625,0.1875 z m -0.3125,-10.125 c -0.367187,0 -0.703125,0.070312 -1.015625,0.203125 -0.3125,0.125 -0.59375,0.3125 -0.84375,0.5625 -0.242188,0.25 -0.449219,0.558594 -0.625,0.921875 C 4.207031,-7.863281 4.085938,-7.457031 4.015625,-7 h 5.53125 V -7.1875 C 9.523438,-7.539062 9.457031,-7.878906 9.34375,-8.203125 9.226562,-8.523438 9.0625,-8.8125 8.84375,-9.0625 8.625,-9.320312 8.347656,-9.523438 8.015625,-9.671875 7.691406,-9.828125 7.304688,-9.90625 6.859375,-9.90625 Z m 0,0"
                     id="path125" />
                </g>
              </g>
            </g>
            <g
               fill="#000000"
               fill-opacity="1"
               id="g131">
              <g
                 transform="translate(27.78736,23.894351)"
                 id="g130">
                <g
                   id="g129">
                  <path
                     d="m 9.375,-3.1875 c 0,-0.195312 -0.042969,-0.378906 -0.125,-0.546875 -0.085938,-0.164063 -0.230469,-0.3125 -0.4375,-0.4375 -0.199219,-0.132813 -0.480469,-0.257813 -0.84375,-0.375 -0.355469,-0.125 -0.8125,-0.238281 -1.375,-0.34375 C 5.894531,-5.035156 5.265625,-5.207031 4.703125,-5.40625 4.140625,-5.613281 3.65625,-5.859375 3.25,-6.140625 2.84375,-6.421875 2.53125,-6.75 2.3125,-7.125 2.101562,-7.5 2,-7.9375 2,-8.4375 2,-8.914062 2.109375,-9.367188 2.328125,-9.796875 2.554688,-10.234375 2.878906,-10.613281 3.296875,-10.9375 3.710938,-11.257812 4.21875,-11.515625 4.8125,-11.703125 5.414062,-11.898438 6.085938,-12 6.828125,-12 c 0.78125,0 1.484375,0.101562 2.109375,0.296875 0.625,0.1875 1.148438,0.453125 1.578125,0.796875 0.425781,0.335938 0.753906,0.730469 0.984375,1.1875 0.226562,0.460938 0.34375,0.949219 0.34375,1.46875 H 9.234375 c 0,-0.226562 -0.054687,-0.445312 -0.15625,-0.65625 C 8.984375,-9.125 8.832031,-9.316406 8.625,-9.484375 8.425781,-9.648438 8.175781,-9.78125 7.875,-9.875 7.570312,-9.976562 7.222656,-10.03125 6.828125,-10.03125 c -0.386719,0 -0.726563,0.042969 -1.015625,0.125 -0.292969,0.085938 -0.53125,0.195312 -0.71875,0.328125 -0.1875,0.136719 -0.328125,0.296875 -0.421875,0.484375 -0.085937,0.179688 -0.125,0.359375 -0.125,0.546875 0,0.199219 0.03125,0.382813 0.09375,0.546875 0.070313,0.15625 0.203125,0.304688 0.390625,0.4375 0.1875,0.125 0.445312,0.242188 0.78125,0.34375 0.332031,0.105469 0.765625,0.203125 1.296875,0.296875 0.738281,0.136719 1.40625,0.304687 2,0.5 0.59375,0.1875 1.097656,0.429687 1.515625,0.71875 0.414062,0.28125 0.738281,0.617187 0.96875,1 0.226562,0.386719 0.34375,0.84375 0.34375,1.375 0,0.523437 -0.125,1 -0.375,1.4375 -0.242188,0.4375 -0.585938,0.8125 -1.03125,1.125 -0.4375,0.3125 -0.96875,0.558594 -1.59375,0.734375 C 8.320312,0.144531 7.628906,0.234375 6.859375,0.234375 6.003906,0.234375 5.25,0.117188 4.59375,-0.109375 3.9375,-0.335938 3.382812,-0.632812 2.9375,-1 2.5,-1.375 2.164062,-1.796875 1.9375,-2.265625 1.707031,-2.742188 1.59375,-3.226562 1.59375,-3.71875 H 4.125 c 0.019531,0.367188 0.113281,0.679688 0.28125,0.9375 0.164062,0.25 0.378906,0.453125 0.640625,0.609375 0.269531,0.15625 0.5625,0.273437 0.875,0.34375 0.320313,0.0625 0.644531,0.09375 0.96875,0.09375 0.8125,0 1.425781,-0.132813 1.84375,-0.40625 C 9.160156,-2.410156 9.375,-2.757812 9.375,-3.1875 Z m 0,0"
                     id="path128" />
                </g>
              </g>
            </g>
            <g
               fill="#000000"
               fill-opacity="1"
               id="g134">
              <g
                 transform="translate(41.178538,23.894351)"
                 id="g133">
                <g
                   id="g132">
                  <path
                     d="m 2.25,-11.78125 h 6.296875 v 9.625 H 12.03125 V 0 H 2.25 V -2.15625 H 5.921875 V -9.625 H 2.25 Z m 3.453125,-3.0625 c 0,-0.40625 0.128906,-0.738281 0.390625,-1 0.257812,-0.269531 0.625,-0.40625 1.09375,-0.40625 0.476562,0 0.847656,0.136719 1.109375,0.40625 0.269531,0.261719 0.40625,0.59375 0.40625,1 0,0.40625 -0.136719,0.746094 -0.40625,1.015625 -0.261719,0.261719 -0.632813,0.390625 -1.109375,0.390625 -0.46875,0 -0.835938,-0.128906 -1.09375,-0.390625 C 5.832031,-14.097656 5.703125,-14.4375 5.703125,-14.84375 Z m 0,0"
                     id="path131" />
                </g>
              </g>
            </g>
            <g
               fill="#000000"
               fill-opacity="1"
               id="g137">
              <g
                 transform="translate(54.569715,23.894351)"
                 id="g136">
                <g
                   id="g135">
                  <path
                     d="m 9.375,-3.1875 c 0,-0.195312 -0.042969,-0.378906 -0.125,-0.546875 -0.085938,-0.164063 -0.230469,-0.3125 -0.4375,-0.4375 -0.199219,-0.132813 -0.480469,-0.257813 -0.84375,-0.375 -0.355469,-0.125 -0.8125,-0.238281 -1.375,-0.34375 C 5.894531,-5.035156 5.265625,-5.207031 4.703125,-5.40625 4.140625,-5.613281 3.65625,-5.859375 3.25,-6.140625 2.84375,-6.421875 2.53125,-6.75 2.3125,-7.125 2.101562,-7.5 2,-7.9375 2,-8.4375 2,-8.914062 2.109375,-9.367188 2.328125,-9.796875 2.554688,-10.234375 2.878906,-10.613281 3.296875,-10.9375 3.710938,-11.257812 4.21875,-11.515625 4.8125,-11.703125 5.414062,-11.898438 6.085938,-12 6.828125,-12 c 0.78125,0 1.484375,0.101562 2.109375,0.296875 0.625,0.1875 1.148438,0.453125 1.578125,0.796875 0.425781,0.335938 0.753906,0.730469 0.984375,1.1875 0.226562,0.460938 0.34375,0.949219 0.34375,1.46875 H 9.234375 c 0,-0.226562 -0.054687,-0.445312 -0.15625,-0.65625 C 8.984375,-9.125 8.832031,-9.316406 8.625,-9.484375 8.425781,-9.648438 8.175781,-9.78125 7.875,-9.875 7.570312,-9.976562 7.222656,-10.03125 6.828125,-10.03125 c -0.386719,0 -0.726563,0.042969 -1.015625,0.125 -0.292969,0.085938 -0.53125,0.195312 -0.71875,0.328125 -0.1875,0.136719 -0.328125,0.296875 -0.421875,0.484375 -0.085937,0.179688 -0.125,0.359375 -0.125,0.546875 0,0.199219 0.03125,0.382813 0.09375,0.546875 0.070313,0.15625 0.203125,0.304688 0.390625,0.4375 0.1875,0.125 0.445312,0.242188 0.78125,0.34375 0.332031,0.105469 0.765625,0.203125 1.296875,0.296875 0.738281,0.136719 1.40625,0.304687 2,0.5 0.59375,0.1875 1.097656,0.429687 1.515625,0.71875 0.414062,0.28125 0.738281,0.617187 0.96875,1 0.226562,0.386719 0.34375,0.84375 0.34375,1.375 0,0.523437 -0.125,1 -0.375,1.4375 -0.242188,0.4375 -0.585938,0.8125 -1.03125,1.125 -0.4375,0.3125 -0.96875,0.558594 -1.59375,0.734375 C 8.320312,0.144531 7.628906,0.234375 6.859375,0.234375 6.003906,0.234375 5.25,0.117188 4.59375,-0.109375 3.9375,-0.335938 3.382812,-0.632812 2.9375,-1 2.5,-1.375 2.164062,-1.796875 1.9375,-2.265625 1.707031,-2.742188 1.59375,-3.226562 1.59375,-3.71875 H 4.125 c 0.019531,0.367188 0.113281,0.679688 0.28125,0.9375 0.164062,0.25 0.378906,0.453125 0.640625,0.609375 0.269531,0.15625 0.5625,0.273437 0.875,0.34375 0.320313,0.0625 0.644531,0.09375 0.96875,0.09375 0.8125,0 1.425781,-0.132813 1.84375,-0.40625 C 9.160156,-2.410156 9.375,-2.757812 9.375,-3.1875 Z m 0,0"
                     id="path134" />
                </g>
              </g>
            </g>
          </g>
        </g>
      </g>
      <g
         transform="translate(56,2)"
         id="g151">
        <g
           clip-path="url(#84cde15a40)"
           id="g150">
          <g
             fill="#000000"
             fill-opacity="1"
             id="g143">
            <g
               transform="translate(1.33463,23.582277)"
               id="g142">
              <g
                 id="g141">
                <path
                   d="m 4.296875,-10.15625 c 0.40625,-0.582031 0.898437,-1.035156 1.484375,-1.359375 C 6.363281,-11.835938 7.015625,-12 7.734375,-12 c 0.613281,0 1.175781,0.08984 1.6875,0.265625 0.507813,0.179687 0.945313,0.460937 1.3125,0.84375 0.363281,0.386719 0.644531,0.882813 0.84375,1.484375 0.207031,0.59375 0.3125,1.308594 0.3125,2.140625 V 0 H 9.28125 v -7.28125 c 0,-0.457031 -0.058594,-0.847656 -0.171875,-1.171875 C 8.992188,-8.773438 8.832031,-9.039062 8.625,-9.25 8.425781,-9.457031 8.175781,-9.613281 7.875,-9.71875 7.582031,-9.820312 7.242188,-9.875 6.859375,-9.875 c -0.5625,0 -1.0625,0.121094 -1.5,0.359375 -0.4375,0.242187 -0.792969,0.558594 -1.0625,0.953125 V 0 H 1.6875 v -16.734375 h 2.609375 z m 0,0"
                   id="path140" />
              </g>
            </g>
          </g>
          <g
             fill="#000000"
             fill-opacity="1"
             id="g146">
            <g
               transform="translate(14.720243,23.582277)"
               id="g145">
              <g
                 id="g144">
                <path
                   d="M 9.203125,0 C 9.128906,-0.144531 9.066406,-0.316406 9.015625,-0.515625 8.972656,-0.710938 8.9375,-0.921875 8.90625,-1.140625 c -0.1875,0.1875 -0.398438,0.367187 -0.625,0.53125 C 8.050781,-0.453125 7.796875,-0.3125 7.515625,-0.1875 7.242188,-0.0625 6.945312,0.0351562 6.625,0.109375 6.300781,0.179688 5.953125,0.21875 5.578125,0.21875 4.953125,0.21875 4.382812,0.128906 3.875,-0.046875 3.375,-0.222656 2.941406,-0.46875 2.578125,-0.78125 2.222656,-1.101562 1.945312,-1.476562 1.75,-1.90625 1.550781,-2.332031 1.453125,-2.796875 1.453125,-3.296875 c 0,-1.269531 0.46875,-2.238281 1.40625,-2.90625 0.945313,-0.664063 2.300781,-1 4.0625,-1 h 1.90625 V -7.96875 c 0,-0.625 -0.214844,-1.117188 -0.640625,-1.484375 -0.417969,-0.375 -1.011719,-0.5625 -1.78125,-0.5625 -0.34375,0 -0.652344,0.042969 -0.921875,0.125 -0.261719,0.085937 -0.480469,0.199219 -0.65625,0.34375 C 4.660156,-9.398438 4.53125,-9.226562 4.4375,-9.03125 4.351562,-8.832031 4.3125,-8.625 4.3125,-8.40625 H 1.703125 c 0,-0.457031 0.109375,-0.898438 0.328125,-1.328125 C 2.25,-10.160156 2.5625,-10.539062 2.96875,-10.875 3.382812,-11.21875 3.890625,-11.488281 4.484375,-11.6875 5.085938,-11.894531 5.773438,-12 6.546875,-12 c 0.695313,0 1.34375,0.08594 1.9375,0.25 0.59375,0.167969 1.109375,0.421875 1.546875,0.765625 0.4375,0.335937 0.773438,0.757813 1.015625,1.265625 0.25,0.5 0.375,1.089844 0.375,1.765625 v 5.25 c 0,0.523437 0.03516,0.996094 0.109375,1.421875 0.08203,0.417969 0.195312,0.78125 0.34375,1.09375 V 0 Z M 6.0625,-1.890625 c 0.332031,0 0.644531,-0.039063 0.9375,-0.125 0.300781,-0.082031 0.566406,-0.1875 0.796875,-0.3125 0.238281,-0.132813 0.441406,-0.289063 0.609375,-0.46875 0.175781,-0.175781 0.316406,-0.351563 0.421875,-0.53125 v -2.21875 h -1.65625 c -1.0625,0 -1.851563,0.171875 -2.359375,0.515625 -0.5,0.34375 -0.75,0.828125 -0.75,1.453125 0,0.242187 0.035156,0.464844 0.109375,0.671875 0.082031,0.210938 0.207031,0.390625 0.375,0.546875 0.164063,0.148437 0.375,0.261719 0.625,0.34375 0.25,0.085937 0.546875,0.125 0.890625,0.125 z m 0,0"
                   id="path143" />
              </g>
            </g>
          </g>
          <g
             fill="#000000"
             fill-opacity="1"
             id="g149">
            <g
               transform="translate(28.105856,23.582277)"
               id="g148">
              <g
                 id="g147">
                <path
                   d="M 6.359375,-4.71875 6.8125,-3.296875 10.125,-11.78125 h 2.890625 L 7.03125,1.78125 C 6.90625,2.082031 6.734375,2.40625 6.515625,2.75 6.304688,3.09375 6.046875,3.410156 5.734375,3.703125 c -0.304687,0.300781 -0.667969,0.550781 -1.09375,0.75 -0.429687,0.207031 -0.929687,0.3125 -1.5,0.3125 -0.242187,0 -0.484375,-0.023437 -0.734375,-0.0625 C 2.164062,4.660156 1.953125,4.613281 1.765625,4.5625 l 0.375,-2.03125 c 0.050781,0 0.117187,0 0.203125,0 0.082031,0.00781 0.171875,0.019531 0.265625,0.03125 0.09375,0.00781 0.179687,0.015625 0.265625,0.015625 0.082031,0 0.148438,0 0.203125,0 0.257813,0 0.488281,-0.074219 0.6875,-0.21875 C 3.960938,2.210938 4.132812,2.039062 4.28125,1.84375 4.4375,1.65625 4.5625,1.46875 4.65625,1.28125 4.757812,1.09375 4.832031,0.96875 4.875,0.90625 L 5.65625,-0.5625 0.640625,-11.78125 h 2.875 z m 0,0"
                   id="path146" />
              </g>
            </g>
          </g>
        </g>
      </g>
      <g
         transform="translate(25,1)"
         id="g159">
        <g
           clip-path="url(#478517be6d)"
           id="g158">
          <g
             fill="#000000"
             fill-opacity="1"
             id="g154">
            <g
               transform="translate(0.40283,23.921608)"
               id="g153">
              <g
                 id="g152">
                <path
                   d="m 4.28125,-11.78125 0.1875,1.625 C 4.882812,-10.738281 5.394531,-11.191406 6,-11.515625 6.601562,-11.835938 7.269531,-12 8,-12 c 0.601562,0 1.148438,0.08984 1.640625,0.265625 0.488281,0.167969 0.914063,0.445313 1.28125,0.828125 0.363281,0.375 0.644531,0.867188 0.84375,1.46875 0.195313,0.59375 0.296875,1.324219 0.296875,2.1875 V 0 H 9.03125 V -7.21875 C 9.03125,-7.675781 8.976562,-8.054688 8.875,-8.359375 8.769531,-8.660156 8.617188,-8.898438 8.421875,-9.078125 8.222656,-9.253906 7.984375,-9.375 7.703125,-9.4375 7.429688,-9.507812 7.125,-9.546875 6.78125,-9.546875 c -0.523438,0 -0.964844,0.105469 -1.328125,0.3125 -0.367187,0.210937 -0.65625,0.496094 -0.875,0.859375 V 0 H 1.53125 v -11.78125 z m 0,0"
                   id="path151" />
              </g>
            </g>
          </g>
          <g
             fill="#000000"
             fill-opacity="1"
             id="g157">
            <g
               transform="translate(13.794007,23.921608)"
               id="g156">
              <g
                 id="g155">
                <path
                   d="m 1.125,-6 c 0,-0.851562 0.117188,-1.644531 0.359375,-2.375 0.25,-0.738281 0.613281,-1.375 1.09375,-1.90625 0.476563,-0.539062 1.054687,-0.960938 1.734375,-1.265625 C 5,-11.847656 5.785156,-12 6.671875,-12 c 0.882813,0 1.671875,0.152344 2.359375,0.453125 0.695312,0.304687 1.28125,0.726563 1.75,1.265625 0.476562,0.53125 0.84375,1.167969 1.09375,1.90625 0.25,0.730469 0.375,1.523438 0.375,2.375 v 0.21875 c 0,0.867188 -0.125,1.667969 -0.375,2.40625 -0.25,0.730469 -0.609375,1.367188 -1.078125,1.90625 -0.46875,0.53125 -1.054687,0.949219 -1.75,1.25 -0.6875,0.3007812 -1.46875,0.453125 -2.34375,0.453125 -0.886719,0 -1.679687,-0.1523438 -2.375,-0.453125 -0.6875,-0.300781 -1.273437,-0.71875 -1.75,-1.25 C 2.097656,-2.007812 1.734375,-2.644531 1.484375,-3.375 1.242188,-4.113281 1.125,-4.914062 1.125,-5.78125 Z m 3.03125,0.21875 c 0,0.5 0.046875,0.96875 0.140625,1.40625 0.09375,0.429688 0.238281,0.804688 0.4375,1.125 0.207031,0.324219 0.472656,0.578125 0.796875,0.765625 0.320312,0.1875 0.710938,0.28125 1.171875,0.28125 0.4375,0 0.816406,-0.09375 1.140625,-0.28125 C 8.164062,-2.671875 8.425781,-2.925781 8.625,-3.25 8.820312,-3.570312 8.96875,-3.945312 9.0625,-4.375 9.15625,-4.8125 9.203125,-5.28125 9.203125,-5.78125 V -6 C 9.203125,-6.476562 9.15625,-6.929688 9.0625,-7.359375 8.96875,-7.785156 8.820312,-8.160156 8.625,-8.484375 8.425781,-8.816406 8.164062,-9.078125 7.84375,-9.265625 7.519531,-9.460938 7.128906,-9.5625 6.671875,-9.5625 c -0.449219,0 -0.835937,0.101562 -1.15625,0.296875 -0.3125,0.1875 -0.574219,0.449219 -0.78125,0.78125 -0.199219,0.324219 -0.34375,0.699219 -0.4375,1.125 C 4.203125,-6.929688 4.15625,-6.476562 4.15625,-6 Z m 0,0"
                   id="path154" />
              </g>
            </g>
          </g>
        </g>
      </g>
      <g
         fill="#000000"
         fill-opacity="1"
         id="g162">
        <g
           transform="translate(1.096672,40.706702)"
           id="g161">
          <g
             id="g160">
            <path
               d="M 18.453125,6.90625 C 17.640625,6.882812 16.898438,6.742188 16.234375,6.484375 15.566406,6.234375 14.96875,5.894531 14.4375,5.46875 13.90625,5.039062 13.445312,4.546875 13.0625,3.984375 12.6875,3.421875 12.367188,2.8125 12.109375,2.15625 c -0.261719,-0.648438 -0.453125,-1.3125 -0.578125,-2 -0.125,-0.6875 -0.1875,-1.363281 -0.1875,-2.03125 V -5.0625 C 11.34375,-6.875 10.910156,-8.1875 10.046875,-9 9.191406,-9.820312 7.875,-10.238281 6.09375,-10.25 v -2.734375 c 1.78125,0 3.097656,-0.40625 3.953125,-1.21875 0.863281,-0.8125 1.296875,-2.128906 1.296875,-3.953125 v -3.203125 c 0,-0.664063 0.05469,-1.34375 0.171875,-2.03125 0.113281,-0.6875 0.289063,-1.351563 0.53125,-2 0.238281,-0.65625 0.539063,-1.265625 0.90625,-1.828125 0.375,-0.5625 0.820313,-1.054688 1.34375,-1.484375 0.53125,-0.425781 1.140625,-0.765625 1.828125,-1.015625 0.6875,-0.257812 1.460938,-0.398438 2.328125,-0.421875 l 0.40625,2.171875 c -0.90625,0.02344 -1.632813,0.234375 -2.171875,0.640625 -0.53125,0.398437 -0.933594,0.90625 -1.203125,1.53125 -0.273437,0.625 -0.445313,1.328125 -0.515625,2.109375 -0.07422,0.78125 -0.109375,1.558594 -0.109375,2.328125 v 3.203125 c -0.02344,1.511719 -0.375,2.839844 -1.0625,3.984375 -0.6875,1.136719 -1.765625,1.996094 -3.234375,2.578125 1.46875,0.585938 2.546875,1.449219 3.234375,2.59375 0.6875,1.136719 1.039063,2.449219 1.0625,3.9375 v 3.1875 c 0,0.78125 0.0625,1.558594 0.1875,2.328125 0.125,0.78125 0.335937,1.476563 0.640625,2.09375 0.3125,0.625 0.722656,1.140625 1.234375,1.546875 0.507813,0.40625 1.15625,0.617188 1.9375,0.640625 z m 0,0"
               id="path159" />
          </g>
        </g>
      </g>
    </g>
  </g>
</svg>
