<?xml version="1.0" encoding="UTF-8" standalone="no"?>
<!-- Created with Inkscape (http://www.inkscape.org/) -->

<svg
   width="210mm"
   height="297mm"
   viewBox="0 0 210 297"
   version="1.1"
   id="svg1058"
   inkscape:version="1.1.1 (3bf5ae0, 2021-09-20)"
   sodipodi:docname="drawing-1.svg"
   xmlns:inkscape="http://www.inkscape.org/namespaces/inkscape"
   xmlns:sodipodi="http://sodipodi.sourceforge.net/DTD/sodipodi-0.dtd"
   xmlns="http://www.w3.org/2000/svg"
   xmlns:svg="http://www.w3.org/2000/svg">
  <sodipodi:namedview
     id="namedview1060"
     pagecolor="#505050"
     bordercolor="#ffffff"
     borderopacity="1"
     inkscape:pageshadow="0"
     inkscape:pageopacity="0"
     inkscape:pagecheckerboard="1"
     inkscape:document-units="mm"
     showgrid="false"
     showguides="true"
     inkscape:guide-bbox="true"
     inkscape:snap-global="true"
     inkscape:zoom="0.70796197"
     inkscape:cx="574.18339"
     inkscape:cy="476.72052"
     inkscape:window-width="1366"
     inkscape:window-height="704"
     inkscape:window-x="1920"
     inkscape:window-y="339"
     inkscape:window-maximized="1"
     inkscape:current-layer="layer1" />
  <defs
     id="defs1055">
    <rect
       x="217.22382"
       y="739.44127"
       width="196.0615"
       height="51.612049"
       id="rect6094" />
    <linearGradient
       id="ian_symbols_71387fb0d0eb6e14adbead9157c5096c"
       y2="152.42999"
       gradientUnits="userSpaceOnUse"
       x2="14.309"
       gradientTransform="matrix(5.8725004,0,0,5.8725004,234.07808,-63.974891)"
       y1="0.68260002"
       x1="14.309">
      <stop
         stop-color="#E9E739"
         offset="0"
         id="stop22" />
      <stop
         stop-color="#4B8868"
         offset="1"
         id="stop24" />
    </linearGradient>
    <linearGradient
       id="ian_symbols_0e022306d93aaa146921665a0db85a3f"
       y2="172.91"
       gradientUnits="userSpaceOnUse"
       x2="-24.969999"
       gradientTransform="matrix(5.8725004,0,0,5.8725004,234.07808,-63.974891)"
       y1="0.36669999"
       x1="-24.969999">
      <stop
         stop-color="#E9E739"
         offset="0"
         id="stop29" />
      <stop
         stop-color="#4B8868"
         offset="1"
         id="stop31" />
    </linearGradient>
    <linearGradient
       id="ian_symbols_878283ad62fd1294512f1ab315c7d888"
       y2="168.11"
       gradientUnits="userSpaceOnUse"
       x2="-24.392"
       gradientTransform="matrix(5.8725004,0,0,5.8725004,234.07808,-63.974891)"
       y1="-18.91"
       x1="-24.392">
      <stop
         stop-color="#E9E739"
         offset="0"
         id="stop38" />
      <stop
         stop-color="#4B8868"
         offset="1"
         id="stop40" />
    </linearGradient>
    <rect
       x="217.22382"
       y="739.44128"
       width="196.06149"
       height="51.612049"
       id="rect6094-3" />
    <rect
       x="217.22382"
       y="739.44128"
       width="196.06149"
       height="51.612049"
       id="rect6094-3-7" />
    <clipPath
       clipPathUnits="userSpaceOnUse"
       id="clipPath14248">
      <g
         id="g14252"
         transform="matrix(0.30743948,0,0,0.30721758,26.167335,82.48264)"
         style="fill:none;fill-opacity:1;stroke:#000000;stroke-width:3.25385;stroke-miterlimit:4;stroke-dasharray:none;stroke-opacity:1">
        <path
           d="M 366.29999,0 H 122.1 L 0,211.5 122.1,423 h 244.19999 l 122.1,-211.5 z"
           style="fill:none;fill-opacity:1;fill-rule:nonzero;stroke:#000000;stroke-width:3.25385;stroke-miterlimit:4;stroke-dasharray:none;stroke-opacity:1"
           id="path14250" />
      </g>
    </clipPath>
    <clipPath
       clipPathUnits="userSpaceOnUse"
       id="clipPath15021">
      <g
         id="g15025"
         transform="matrix(0.30507286,0,0,0.3048527,27.766574,88.196994)"
         style="fill:none;fill-opacity:1;stroke:#000000;stroke-width:4.91863;stroke-miterlimit:4;stroke-dasharray:none;stroke-opacity:1">
        <path
           d="M 366.29999,0 H 122.1 L 0,211.5 122.1,423 h 244.19999 l 122.1,-211.5 z"
           style="fill:none;fill-opacity:1;fill-rule:nonzero;stroke:#000000;stroke-width:4.91863;stroke-miterlimit:4;stroke-dasharray:none;stroke-opacity:1"
           id="path15023" />
      </g>
    </clipPath>
  </defs>
  <g
     inkscape:label="Layer 1"
     inkscape:groupmode="layer"
     id="layer1">
    <g
       id="g14573"
       transform="translate(2.734632,-4.173339)"
       clip-path="url(#clipPath15021)">
      <path
         style="fill:#fcfcfc;stroke-width:0.0846667"
         d="m 55.275366,187.175 v -2.58233 h 1.397 1.397 l 3.4e-4,0.78317 c 2.5e-4,0.62735 0.0332,0.83709 0.16559,1.05422 0.43509,0.71358 1.67224,0.78884 2.30151,0.13999 0.27832,-0.28697 0.28485,-0.31066 0.31335,-1.13523 l 0.0291,-0.84215 h 0.6694 0.6694 v 1.18533 1.18534 h 0.254 0.254 v -1.18534 -1.18533 h 0.247 c 0.22403,0 0.31943,0.11021 1.02598,1.18533 0.70294,1.06963 0.8028,1.18534 1.023,1.18534 h 0.24402 v -1.18534 -1.18533 h 1.778 1.778 v 1.18533 1.18534 h 0.21166 c 0.20986,0 0.21167,-0.006 0.21167,-0.75026 v -0.75026 l 0.74362,-0.0424 c 0.8428,-0.048 1.23014,-0.20343 1.44392,-0.5792 0.1333,-0.23431 0.17061,-0.24751 0.70116,-0.24802 l 0.56036,-8.4e-4 0.0399,0.62193 c 0.0284,0.44251 0.0988,0.72855 0.24397,0.99155 0.50925,0.92246 1.63119,1.08564 2.37186,0.34498 0.35611,-0.35612 0.49805,-0.77496 0.49872,-1.47163 l 4.5e-4,-0.48652 h 0.71967 0.71967 v 1.18533 1.18534 h 0.64634 c 0.83165,0 1.26633,-0.13467 1.63966,-0.508 0.34439,-0.3444 0.508,-0.80429 0.508,-1.42799 v -0.43468 h 0.59266 0.59267 l 5.1e-4,0.48683 c 6.8e-4,0.6773 0.13137,1.07985 0.47367,1.45874 0.65925,0.7297 1.92516,0.59288 2.36388,-0.2555 0.19302,-0.37326 0.16376,-0.5894 -0.0798,-0.5894 -0.15793,0 -0.22681,0.0658 -0.29952,0.2861 -0.12653,0.38338 -0.34602,0.56586 -0.74503,0.61937 -0.73386,0.0984 -1.2003,-0.47384 -1.20382,-1.47697 l -0.002,-0.52917 h 2.19289 2.1929 l -0.36401,0.9525 c -0.2002,0.52388 -0.40593,1.05969 -0.45717,1.19069 -0.091,0.23274 -0.0871,0.23759 0.17327,0.21167 0.24068,-0.024 0.28317,-0.0736 0.43969,-0.51336 l 0.17326,-0.48683 h 0.85883 0.858835 l 0.161918,0.47643 c 0.167814,0.49379 0.246564,0.5722 0.527368,0.5251 0.15432,-0.0259 0.134306,-0.11042 -0.282265,-1.19203 l -0.448362,-1.16417 h 1.013737 c 0.934771,0 1.034733,0.0157 1.283256,0.20096 0.148234,0.11053 0.531348,0.28664 0.851363,0.39134 0.694196,0.22716 0.899821,0.40805 0.899821,0.79158 0,0.37765 -0.238061,0.57894 -0.739975,0.62568 -0.324289,0.0302 -0.460917,-0.002 -0.699358,-0.16342 -0.162983,-0.11053 -0.308509,-0.28538 -0.323389,-0.38855 -0.02089,-0.14484 -0.08359,-0.18759 -0.275166,-0.18759 -0.289691,0 -0.320832,0.1471 -0.107571,0.50813 0.448653,0.7595 2.028783,0.85405 2.52132,0.15085 0.170285,-0.24312 0.170285,-0.9055 0,-1.14862 -0.149802,-0.21388 -0.469967,-0.39453 -1.091187,-0.61572 l -0.427674,-0.15227 1.9685,-0.006 1.9685,-0.006 v 1.18533 1.18534 h 0.254 0.254 v -1.18534 -1.18533 h 2.122314 c 2.101503,0 2.124964,0.002 2.391825,0.20096 0.14824,0.11053 0.531364,0.28664 0.851374,0.39134 0.6942,0.22715 0.89982,0.40804 0.89982,0.79158 0,0.37764 -0.23806,0.57894 -0.73998,0.62567 -0.32428,0.0302 -0.46091,-0.002 -0.699354,-0.16341 -0.16299,-0.11053 -0.30851,-0.28538 -0.323392,-0.38855 -0.02089,-0.14484 -0.08358,-0.18759 -0.275166,-0.18759 -0.289687,0 -0.320828,0.1471 -0.107569,0.50813 0.448657,0.7595 2.028781,0.85405 2.521321,0.15085 0.17028,-0.24312 0.17028,-0.9055 0,-1.14862 -0.1498,-0.21388 -0.46997,-0.39453 -1.09118,-0.61572 l -0.42768,-0.15227 1.40703,-0.006 1.40704,-0.006 0.0399,0.62193 c 0.0284,0.44251 0.0988,0.72855 0.24397,0.99155 0.50924,0.92246 1.63118,1.08564 2.37185,0.34498 0.35611,-0.35612 0.49805,-0.77496 0.49873,-1.47163 l 8.4e-4,-0.48683 h 0.71967 0.71967 v 1.18533 1.18533 l 0.8255,-0.002 c 0.97289,-0.002 1.45443,-0.16975 1.66655,-0.57995 0.25638,-0.49578 0.12862,-1.10917 -0.27986,-1.34361 l -0.24468,-0.14042 0.19376,-0.15241 c 0.15753,-0.1239 0.35359,-0.15241 1.04825,-0.15241 h 0.85448 v 1.18533 1.18533 h 0.21166 c 0.21092,0 0.21167,-0.003 0.21167,-0.80433 v -0.80433 h 0.50193 0.50194 l 0.41038,0.78316 c 0.37674,0.71899 0.43274,0.78535 0.68339,0.80971 0.15017,0.0146 0.27303,0.01 0.27303,-0.0105 0,-0.0204 -0.18981,-0.37521 -0.4218,-0.78854 -0.23198,-0.41331 -0.42248,-0.77558 -0.42333,-0.80503 -8.5e-4,-0.0294 0.15534,-0.21042 0.34708,-0.40217 l 0.34864,-0.34862 h 0.66736 0.66738 v 1.18533 1.18533 h 1.22767 1.22766 v -0.21166 -0.21167 h -1.016 -1.016 v -0.71967 -0.71966 h 0.8949 c 0.8796,0 0.89441,-0.003 0.86783,-0.1905 -0.0256,-0.18021 -0.0751,-0.19303 -0.91606,-0.23743 -0.53981,-0.0285 0.11699,-0.0534 1.67217,-0.0635 l 2.56079,-0.0166 8.5e-4,0.48683 c 8.4e-4,0.6773 0.13137,1.07985 0.47366,1.45874 0.65925,0.7297 1.92517,0.59288 2.36389,-0.2555 0.19301,-0.37326 0.16375,-0.5894 -0.0798,-0.5894 -0.15794,0 -0.22682,0.0658 -0.29953,0.2861 -0.12652,0.38338 -0.34601,0.56586 -0.74502,0.61937 -0.73386,0.0984 -1.2003,-0.47384 -1.20382,-1.47697 l -0.002,-0.52917 h 1.905 1.905 v 1.18533 1.18534 h 0.254 0.254 v -1.18534 -1.18533 h 0.762 0.762 v 1.18533 1.18534 h 1.22767 1.22766 v -0.21167 -0.21167 h -1.016 -1.016 v -0.71966 -0.71967 h 0.8949 c 0.8796,0 0.89442,-0.003 0.86783,-0.1905 -0.0256,-0.18021 -0.0751,-0.19303 -0.91606,-0.23743 -0.74286,-0.0392 -0.62108,-0.0496 0.74083,-0.0635 l 1.62984,-0.0166 v 1.18533 1.18534 h 0.254 0.254 v -1.18534 -1.18533 h 0.247 c 0.22403,0 0.31943,0.11021 1.02599,1.18533 0.70293,1.06963 0.8028,1.18534 1.02299,1.18534 h 0.24402 v -1.18534 -1.18533 h 0.71966 0.71967 l 8.5e-4,0.48683 c 8.4e-4,0.6773 0.13137,1.07985 0.47366,1.45874 0.65925,0.7297 1.92517,0.59288 2.36389,-0.2555 0.19301,-0.37326 0.16375,-0.5894 -0.0798,-0.5894 -0.15794,0 -0.22682,0.0658 -0.29953,0.2861 -0.12652,0.38338 -0.34601,0.56586 -0.74502,0.61937 -0.73386,0.0984 -1.2003,-0.47384 -1.20382,-1.47697 l -0.002,-0.52917 h 1.905 1.905 v 1.18533 1.18534 h 0.254 0.254 v -1.18534 -1.18533 h 1.04989 1.0499 l -0.364,0.9525 c -0.20021,0.52388 -0.40593,1.05969 -0.45718,1.19069 -0.091,0.23274 -0.0871,0.23759 0.17327,0.21167 0.24068,-0.024 0.28318,-0.0736 0.43969,-0.51336 l 0.17326,-0.48683 h 0.85884 0.85883 l 0.16192,0.47643 c 0.16781,0.49379 0.24656,0.5722 0.52736,0.5251 0.15432,-0.0259 0.13431,-0.11042 -0.28226,-1.19203 l -0.44836,-1.16417 h 1.55842 1.55842 v 2.58233 2.58234 H 101.33391 55.275246 Z m 3.75556,-0.62975 c -0.35444,-0.15188 -0.45356,-0.41618 -0.45356,-1.20942 v -0.74316 h 0.889 0.889 v 0.75728 c 0,0.6665 -0.0232,0.78421 -0.1933,0.98199 -0.21226,0.24678 -0.79609,0.35687 -1.13114,0.21331 z m 14.73575,-0.0812 c -0.33904,-0.20675 -0.54198,-0.7179 -0.54198,-1.3651 v -0.50629 h 1.05833 1.05834 v 0.55305 c 0,0.68577 -0.16029,1.08566 -0.52407,1.30745 -0.35078,0.21386 -0.71163,0.2176 -1.05062,0.0109 z m 30.395334,0 c -0.33904,-0.20675 -0.54198,-0.7179 -0.54198,-1.3651 v -0.50629 h 1.05834 1.05833 v 0.55305 c 0,0.68577 -0.16029,1.08566 -0.52407,1.30745 -0.35078,0.21386 -0.71162,0.2176 -1.05062,0.0109 z m -26.449984,-0.88817 v -0.98322 h 0.93134 0.93133 v 0.46839 c 0,0.54886 -0.1437,0.93165 -0.45888,1.22241 -0.18514,0.17079 -0.3346,0.21523 -0.81524,0.24239 l -0.58855,0.0332 z m 30.395344,0.23548 v -0.72863 l 0.68563,0.0311 c 0.59691,0.0271 0.70646,0.0569 0.84666,0.23 0.23004,0.28409 0.2088,0.73273 -0.0468,0.98831 -0.18393,0.18392 -0.28128,0.20781 -0.84667,0.20781 h -0.63885 z m -43.831264,-0.47858 -0.43958,-0.69779 0.42778,-0.0259 c 0.23528,-0.0143 0.44424,-0.009 0.46435,0.0106 0.0201,0.0201 0.0254,0.34578 0.0118,0.7237 l -0.0248,0.68713 z m 69.003334,0 -0.43958,-0.69779 0.42778,-0.0259 c 0.23528,-0.0143 0.44424,-0.009 0.46435,0.0106 0.0201,0.0201 0.0254,0.34578 0.0118,0.7237 l -0.0248,0.68713 z m -46.931414,0.12163 c 0,-0.0383 0.0607,-0.24782 0.13496,-0.46567 0.13274,-0.38956 0.14097,-0.39608 0.50004,-0.39608 0.359077,0 0.367307,0.007 0.500045,0.39608 0.07423,0.21785 0.134959,0.4274 0.134959,0.46567 0,0.0383 -0.28575,0.0696 -0.635004,0.0696 -0.34925,0 -0.635,-0.0313 -0.635,-0.0696 z m 56.472674,0 c 0,-0.0383 0.0607,-0.24782 0.13496,-0.46567 0.13274,-0.38956 0.14097,-0.39608 0.50004,-0.39608 0.35907,0 0.3673,0.007 0.50004,0.39608 0.0742,0.21785 0.13496,0.4274 0.13496,0.46567 0,0.0383 -0.28575,0.0696 -0.635,0.0696 -0.34925,0 -0.635,-0.0313 -0.635,-0.0696 z m -73.575334,-0.6414 v -0.22035 h 0.90781 0.90782 l -0.19047,0.1905 c -0.16135,0.16138 -0.30014,0.19506 -0.90782,0.22035 l -0.71734,0.0299 z m 42.926004,-0.051 c 0,-0.15744 0.0564,-0.16933 0.80433,-0.16933 0.44238,0 0.80433,0.0181 0.80433,0.0402 0,0.13693 -0.57058,0.29851 -1.05412,0.29851 -0.4981,0 -0.55454,-0.0172 -0.55454,-0.16934 z m -3.74427,-0.14677 c 0.19915,-0.0179 0.50395,-0.0176 0.67734,8.5e-4 0.17339,0.0182 0.0105,0.0328 -0.36207,0.0325 -0.37254,0 -0.5144,-0.0152 -0.31527,-0.0331 z"
         id="path14368" />
      <path
         style="fill:#fddc00;stroke-width:0.0846667"
         d="M 10.825366,152.67334 V 61.233338 h 91.440004 91.44 v 91.440002 91.44 h -91.44 -91.440004 z M 147.3927,187.175 v -2.58233 h -1.55517 -1.55517 l -0.29525,-0.78317 c -0.27522,-0.73002 -0.31128,-0.78316 -0.53141,-0.78316 -0.22012,0 -0.25619,0.0531 -0.53141,0.78316 l -0.29525,0.78317 h -1.04717 -1.04717 v -0.80433 -0.80434 h -0.254 -0.254 v 0.80434 0.80433 h -1.905 c -2.10056,0 -2.02511,0.0224 -1.78891,-0.53188 0.37035,-0.86919 1.45161,-0.96376 1.77511,-0.15525 0.11902,0.29748 0.17583,0.34846 0.38821,0.34846 0.23833,0 0.24559,-0.0111 0.17294,-0.26438 -0.18958,-0.66105 -0.64549,-1.00481 -1.33323,-1.0053 -0.83299,-8.5e-4 -1.3365,0.39046 -1.55509,1.20772 l -0.10715,0.40063 h -0.70211 -0.7021 v -0.80433 -0.80434 h -0.254 -0.254 v 0.80434 0.80433 l -0.48684,-0.001 -0.48683,-0.001 -0.50896,-0.78193 c -0.45444,-0.69819 -0.53605,-0.78193 -0.762,-0.78193 h -0.25304 l -0.0243,0.78317 -0.0243,0.78316 h -1.60935 -1.60936 l 0.025,-0.5715 0.025,-0.5715 1.00036,-0.0239 c 0.9787,-0.0234 0.99979,-0.028 0.97367,-0.21166 -0.026,-0.1826 -0.06,-0.18841 -1.2332,-0.21126 l -1.2065,-0.0235 v 0.80665 0.80666 h -0.762 -0.762 v -0.80433 -0.80433 h -0.254 -0.254 v 0.80433 0.80433 h -1.905 c -2.10056,0 -2.02511,0.0224 -1.78891,-0.53188 0.37035,-0.86919 1.45161,-0.96375 1.77511,-0.15525 0.11902,0.29748 0.17583,0.34847 0.38821,0.34847 0.23833,0 0.24559,-0.0111 0.17294,-0.26439 -0.18958,-0.66105 -0.64549,-1.00481 -1.33323,-1.0053 -0.83299,-8.5e-4 -1.3365,0.39046 -1.55509,1.20772 l -0.10715,0.40063 h -2.52631 -2.52631 l 0.025,-0.5715 0.025,-0.5715 1.00037,-0.0239 c 0.9787,-0.0234 0.99978,-0.028 0.97366,-0.21166 -0.026,-0.1826 -0.06,-0.18841 -1.23319,-0.21126 l -1.2065,-0.0235 v 0.80665 0.80666 h -0.67734 -0.67733 v -0.37701 c 0,-0.88519 -0.38765,-1.16124 -1.70708,-1.2156 l -0.91759,-0.0378 v 0.8152 0.81521 h -0.83931 -0.83931 l 0.0898,-0.23783 c 0.12266,-0.32494 0.0194,-0.79647 -0.2246,-1.0257 -0.26215,-0.24628 -0.68888,-0.34062 -1.55205,-0.34311 l -0.6985,-0.002 v 0.80434 0.80433 h -0.71222 -0.71223 l -0.0569,-0.33669 c -0.12837,-0.75978 -0.72218,-1.27198 -1.47468,-1.27198 -0.81027,0 -1.33815,0.42545 -1.54446,1.24477 l -0.0916,0.3639 h -1.47547 c -1.45365,0 -1.47853,-0.003 -1.683284,-0.20781 -0.25163,-0.25164 -0.26289,-0.46134 -0.04,-0.74474 0.370094,-0.47048 1.251654,-0.33425 1.487344,0.22984 0.0957,0.22893 0.17463,0.29938 0.33562,0.29938 0.2628,0 0.28345,-0.26039 0.0509,-0.64178 -0.2104,-0.34504 -0.65168,-0.54359 -1.2078,-0.54342 -0.582444,0 -0.998892,0.20907 -1.21265,0.60828 -0.142731,0.26657 -0.153704,0.36227 -0.07526,0.65617 l 0.09184,0.34408 h -2.104898 -2.104907 v -0.59267 -0.59266 h 0.640893 c 0.616196,0 0.639843,-0.007 0.613833,-0.1905 -0.02675,-0.18838 -0.04384,-0.19076 -1.529892,-0.21362 l -1.502834,-0.0231 v 0.20991 c 0,0.20184 0.02358,0.21087 0.613834,0.23479 l 0.613833,0.0249 0.02504,0.5715 0.02504,0.5715 h -2.039718 -2.039718 l -0.207818,-0.20781 c -0.251636,-0.25164 -0.26289,-0.46134 -0.03997,-0.74474 0.37008,-0.47048 1.251645,-0.33425 1.487336,0.22984 0.09565,0.22893 0.174634,0.29938 0.33562,0.29938 0.262798,0 0.283442,-0.26039 0.05088,-0.64178 -0.210407,-0.34504 -0.651688,-0.54359 -1.207808,-0.54342 -0.582433,0 -0.998884,0.20907 -1.212641,0.60828 -0.142734,0.26657 -0.15371,0.36227 -0.07526,0.65617 l 0.09184,0.34408 h -0.993073 -0.993073 l -0.295253,-0.78317 c -0.27522,-0.73002 -0.31128,-0.78316 -0.53141,-0.78316 -0.22013,0 -0.25619,0.0531 -0.53141,0.78316 l -0.29525,0.78317 h -2.19017 c -2.41532,0 -2.312,0.0265 -2.07408,-0.53188 0.37036,-0.86919 1.45161,-0.96376 1.77511,-0.15525 0.11903,0.29748 0.17583,0.34846 0.38821,0.34846 0.23833,0 0.24559,-0.0111 0.17295,-0.26438 -0.18959,-0.66105 -0.6455,-1.00481 -1.33324,-1.0053 -0.83299,-8.5e-4 -1.3365,0.39046 -1.55509,1.20772 l -0.10715,0.40063 h -0.5617 -0.56171 l -0.10763,-0.35983 c -0.25631,-0.85694 -0.74491,-1.16853 -1.93001,-1.23078 l -0.78316,-0.0411 v 0.81587 0.81587 h -0.71223 -0.71222 l -0.0569,-0.33669 c -0.12836,-0.75978 -0.72218,-1.27198 -1.47467,-1.27198 -0.81029,0 -1.33816,0.42545 -1.54447,1.24477 l -0.0916,0.3639 h -0.54028 -0.54028 l -1.7e-4,-0.3175 c -1.7e-4,-0.43477 -0.23879,-0.87124 -0.58589,-1.07173 -0.22772,-0.13153 -0.49487,-0.17517 -1.24883,-0.20403 l -0.95911,-0.0367 v 0.815 0.81498 h -1.778 -1.778 v -0.80433 -0.80434 h -0.254 -0.254 v 0.80434 0.80433 l -0.48684,-0.001 -0.48683,-0.001 -0.50895,-0.78193 c -0.45445,-0.69819 -0.53606,-0.78193 -0.762,-0.78193 h -0.25305 l -0.0243,0.78317 -0.0243,0.78316 h -0.67416 -0.67415 v -0.80995 -0.80996 l -0.23284,0.0268 -0.23283,0.0268 -0.0243,0.78317 -0.0243,0.78316 h -0.88264 -0.88265 l -0.0243,-0.78316 -0.0243,-0.78317 -0.23283,-0.0268 -0.23284,-0.0268 v 0.80996 0.80995 h -1.397 -1.397 v 2.58234 2.58233 h 46.058664 46.05867 v -2.58233 z m -84.666674,-2.87866 c 0,-0.37281 0.0763,-0.37256 0.31828,0.001 l 0.19128,0.29529 h -0.25478 c -0.23473,3e-5 -0.25478,-0.0233 -0.25478,-0.2963 z m 6.53657,-0.27226 0.0251,-0.57441 0.56836,-0.025 c 0.87354,-0.0384 1.29411,0.25238 1.23588,0.85437 l -0.0262,0.27126 -0.9141,0.0241 -0.91411,0.0241 z m 3.9621,0.43887 c 0,-0.23081 0.22649,-0.66936 0.45407,-0.87923 0.16274,-0.15007 0.31867,-0.2046 0.58502,-0.2046 0.4659,0 0.77438,0.20522 0.9434,0.62763 0.23882,0.59687 0.25608,0.58592 -0.92416,0.58592 -0.89415,0 -1.05833,-0.0201 -1.05833,-0.12972 z m 4.50463,-0.44178 0.025,-0.5715 0.42334,-0.0231 c 0.67858,-0.037 1.21729,0.33267 1.36002,0.93325 l 0.0553,0.23283 h -0.94438 -0.94438 z m 8.9912,0.36357 c 0.0807,-0.32169 0.21104,-0.63874 0.2625,-0.63874 0.0515,0 0.18177,0.31705 0.262507,0.63874 0.04841,0.19286 0.02938,0.20793 -0.262507,0.20793 -0.29188,0 -0.31091,-0.0151 -0.2625,-0.20793 z m 16.899504,0.0782 c 0,-0.23081 0.22649,-0.66936 0.45407,-0.87923 0.16275,-0.15007 0.31868,-0.2046 0.58502,-0.2046 0.46591,0 0.77439,0.20522 0.9434,0.62763 0.23882,0.59687 0.25608,0.58592 -0.92415,0.58592 -0.89416,0 -1.05834,-0.0201 -1.05834,-0.12972 z m 4.50463,-0.44178 0.025,-0.5715 h 0.62138 c 0.55089,0 0.63972,0.0227 0.78316,0.19988 0.19613,0.24231 0.20649,0.50296 0.03,0.75495 -0.1175,0.16775 -0.2052,0.18817 -0.8082,0.18817 h -0.6764 z m 4.06394,0.003 0.0251,-0.57461 h 0.60712 c 0.52902,0 0.63573,0.0269 0.82947,0.20898 0.18084,0.16998 0.21765,0.2727 0.19721,0.55033 l -0.0251,0.34135 -0.82944,0.0243 -0.82945,0.0243 z m 19.54077,0.27204 c 0,-0.37281 0.0763,-0.37256 0.31828,0.001 l 0.19128,0.29529 h -0.25478 c -0.23473,0 -0.25478,-0.0233 -0.25478,-0.29634 z m 11.46383,0.0884 c 0.0807,-0.32169 0.21103,-0.63874 0.2625,-0.63874 0.0515,0 0.18176,0.31705 0.2625,0.63874 0.0484,0.19286 0.0294,0.20793 -0.2625,0.20793 -0.29189,0 -0.3109,-0.0151 -0.2625,-0.20793 z m 2.33683,-11.95609 c 2.3666,-0.49198 4.39203,-2.58837 5.20601,-5.38838 0.36526,-1.25642 0.39861,-1.58781 0.46592,-4.63027 0.0727,-3.28551 0.14667,-3.82772 0.64785,-4.74855 0.29965,-0.55057 1.01801,-1.22047 1.58916,-1.48195 0.50502,-0.2312 1.44483,-0.4544 1.92298,-0.45669 0.16881,-8.5e-4 0.42598,-0.0253 0.5715,-0.0544 l 0.26458,-0.0529 v -1.63432 -1.63433 l -0.48683,-0.0473 c -2.14097,-0.2082 -3.31789,-0.83655 -3.9365,-2.10166 -0.44907,-0.91839 -0.49545,-1.29938 -0.56965,-4.67885 -0.0731,-3.33062 -0.13323,-3.8558 -0.5958,-5.207 -0.83721,-2.44556 -2.74537,-4.31468 -4.86755,-4.76797 -0.73132,-0.15621 -1.73567,-0.26141 -1.73567,-0.1818 0,0.0325 -0.1143,0.60867 -0.254,1.28044 -0.1397,0.67176 -0.254,1.25783 -0.254,1.30236 0,0.0445 0.16708,0.081 0.37128,0.081 1.2139,0 2.31355,0.95508 2.72239,2.36446 0.26532,0.91464 0.31292,1.53414 0.37454,4.87454 0.0728,3.9493 0.10553,4.17733 0.8014,5.59122 0.59506,1.20908 1.53401,2.13902 2.86907,2.84154 l 0.58683,0.30879 -0.53389,0.2713 c -1.38864,0.70565 -2.47289,1.81773 -3.09312,3.17249 -0.50553,1.10422 -0.56108,1.53504 -0.62855,4.875 -0.0646,3.19982 -0.14139,3.9787 -0.49242,4.99724 -0.53206,1.54379 -1.41863,2.43778 -2.56887,2.59036 -0.22476,0.0298 -0.40866,0.0857 -0.40866,0.12428 0,0.0385 0.1143,0.61969 0.254,1.29145 0.1397,0.67177 0.254,1.23934 0.254,1.26127 0,0.068 0.85776,-0.0228 1.524,-0.16129 z m -84.920664,0.11223 c 0,-0.016 0.1143,-0.59346 0.254,-1.28321 0.1397,-0.68974 0.254,-1.26719 0.254,-1.28321 0,-0.016 -0.10739,-0.0291 -0.23864,-0.0291 -1.07898,0 -2.13141,-0.94111 -2.67884,-2.39549 -0.40253,-1.06944 -0.48197,-1.81604 -0.55137,-5.18218 -0.0729,-3.53525 -0.12203,-3.86654 -0.76661,-5.16853 -0.61084,-1.23383 -1.47429,-2.08287 -2.86562,-2.81777 l -0.76034,-0.40162 0.59589,-0.28607 c 1.94047,-0.93155 3.18955,-2.54651 3.63357,-4.69786 0.13365,-0.64756 0.15889,-1.16436 0.16152,-3.30748 0.006,-4.61364 0.22787,-5.8279 1.25432,-6.85436 0.50023,-0.50023 0.99629,-0.73324 1.67737,-0.78791 0.50766,-0.0408 0.54771,-0.0583 0.50872,-0.22265 -0.0233,-0.0981 -0.14624,-0.70469 -0.27325,-1.34792 l -0.23094,-1.1695 -0.55839,0.0557 c -0.84487,0.0843 -1.68544,0.28791 -2.26334,0.54825 -2.08932,0.94123 -3.48684,2.88289 -4.11296,5.71437 -0.14173,0.64096 -0.17929,1.25289 -0.23648,3.85233 -0.0598,2.71846 -0.0891,3.17006 -0.24345,3.75281 -0.235,0.88725 -0.53988,1.42032 -1.11898,1.95646 -0.71563,0.66254 -1.47279,0.92944 -3.14535,1.10873 l -0.48683,0.0522 v 1.63973 1.63972 l 0.35983,0.0445 c 0.19791,0.0245 0.58223,0.0681 0.85405,0.0969 1.06491,0.11281 1.99359,0.54301 2.62161,1.21441 0.47411,0.50686 0.69803,0.93891 0.91888,1.77293 0.14951,0.56466 0.18091,1.04673 0.24078,3.69732 0.0728,3.22352 0.11679,3.61273 0.55764,4.9355 0.6892,2.06791 2.18851,3.86488 3.86511,4.63245 0.6669,0.30532 1.63207,0.53966 2.24493,0.54505 0.29104,0.003 0.52917,-0.008 0.52917,-0.0245 z m 15.32432,-0.4818 c 0.86392,-0.091 2.01353,-0.36841 2.25339,-0.5438 0.1391,-0.10171 0.13969,-0.15467 0.0103,-0.93294 -0.0755,-0.45381 -0.1515,-0.83941 -0.16899,-0.8569 -0.0175,-0.0175 -0.33393,0.0277 -0.70322,0.10048 -0.36929,0.0727 -1.05244,0.13859 -1.5181,0.14632 -0.74911,0.0124 -0.89544,-0.0103 -1.26988,-0.19693 -0.45212,-0.22538 -0.74877,-0.58961 -0.88777,-1.09002 -0.0496,-0.17874 -0.0853,-1.56667 -0.0855,-3.33312 l -4.7e-4,-3.02683 h 2.159 2.159 v -0.97367 -0.97367 h -2.159 -2.159 v -1.397 -1.397 h -1.27 -1.27 v 1.397 1.397 h -1.397 -1.397 v 0.97367 0.97367 h 1.397 1.397 v 3.28421 c 0,3.54609 0.0261,3.80699 0.46793,4.67892 0.53445,1.05469 1.38466,1.58025 2.91874,1.80423 0.39795,0.0581 0.72,0.051 1.52365,-0.0336 z M 88.50703,171.9284 c 0.742015,-0.17733 1.791792,-0.72382 2.350734,-1.22374 0.790915,-0.70741 0.790771,-0.69674 0.01907,-1.40838 l -0.662261,-0.61072 -0.388106,0.3423 c -0.814167,0.71809 -1.76576,1.03913 -2.919171,0.98485 -0.61318,-0.0288 -0.86816,-0.0829 -1.24607,-0.26417 -0.89175,-0.42773 -1.69185,-1.50624 -1.82203,-2.45604 l -0.0542,-0.3953 h 3.99084 3.990842 v -0.65839 c 0,-2.76833 -0.936551,-4.6471 -2.751667,-5.51997 -0.372533,-0.17914 -0.879234,-0.36726 -1.126001,-0.41801 -0.632677,-0.13015 -1.910674,-0.11243 -2.536704,0.0352 -1.88928,0.44544 -3.38451,1.97054 -3.9305,4.00904 -0.237,0.88482 -0.26167,2.8494 -0.0459,3.65281 0.50486,1.87967 1.90935,3.32679 3.74285,3.85644 0.94789,0.27383 2.417961,0.30598 3.388237,0.0741 z m -4.557994,-7.33837 c 0.31233,-1.05273 0.79908,-1.70859 1.53695,-2.07094 0.4058,-0.19928 0.58793,-0.23623 1.16436,-0.23623 0.593329,0 0.749121,0.0336 1.182921,0.25551 0.336423,0.17205 0.601587,0.39044 0.811863,0.66866 0.308627,0.40834 0.581567,1.15935 0.581567,1.60022 v 0.22728 h -2.704771 -2.70477 z m 16.625214,7.46932 c 2.25058,-0.27349 3.71254,-1.35092 3.96356,-2.92104 0.15448,-0.96625 -0.0928,-1.75861 -0.7569,-2.42538 -0.71413,-0.717 -1.72402,-1.1214 -3.961954,-1.58654 -1.882964,-0.39135 -2.463201,-0.76394 -2.463946,-1.58217 -8.47e-4,-0.68999 0.606924,-1.20475 1.647156,-1.39558 1.336184,-0.24512 2.656914,0.36802 2.923244,1.35709 l 0.0925,0.34347 h 1.27192 1.27192 l -0.0586,-0.40217 c -0.2057,-1.41155 -1.16739,-2.43105 -2.7881,-2.95568 -0.92043,-0.29795 -2.5908,-0.37328 -3.549193,-0.16006 -0.967418,0.21523 -1.885798,0.70873 -2.447036,1.31493 -0.590181,0.63747 -0.819753,1.21461 -0.818611,2.05799 0.0011,0.80716 0.234552,1.31088 0.881645,1.90229 0.800524,0.73164 1.645717,1.06974 4.147821,1.65929 1.577754,0.37175 2.165314,0.77937 2.166064,1.50272 8.5e-4,0.45612 -0.30047,0.84025 -0.88869,1.13435 -0.48071,0.24036 -0.56257,0.2539 -1.524004,0.25213 -1.081452,-0.002 -1.362782,-0.074 -1.995894,-0.51121 -0.329074,-0.22722 -0.619049,-0.6827 -0.710955,-1.11675 l -0.05827,-0.27517 H 95.696966 94.47603 v 0.20276 c 0,0.40242 0.347904,1.31651 0.657484,1.72749 1.102202,1.46319 3.119674,2.15929 5.440736,1.87724 z m 26.162,0 c 2.25058,-0.27349 3.71254,-1.35092 3.96356,-2.92104 0.15448,-0.96625 -0.0928,-1.75861 -0.7569,-2.42538 -0.71413,-0.717 -1.72402,-1.1214 -3.96195,-1.58654 -1.88296,-0.39135 -2.4632,-0.76394 -2.46395,-1.58217 -8.4e-4,-0.68999 0.60693,-1.20475 1.64716,-1.39558 1.33618,-0.24512 2.65691,0.36802 2.92324,1.35709 l 0.0925,0.34347 h 1.27192 1.27192 l -0.0586,-0.40217 c -0.2057,-1.41155 -1.16739,-2.43105 -2.7881,-2.95568 -0.92043,-0.29795 -2.5908,-0.37328 -3.54919,-0.16006 -0.96742,0.21523 -1.8858,0.70873 -2.44703,1.31493 -0.59018,0.63747 -0.81976,1.21461 -0.81861,2.05799 0.001,0.80716 0.23455,1.31088 0.88164,1.90229 0.80052,0.73164 1.64572,1.06974 4.14782,1.65929 1.57775,0.37175 2.16531,0.77937 2.16606,1.50272 8.5e-4,0.45612 -0.30047,0.84025 -0.88869,1.13435 -0.48071,0.24036 -0.56257,0.2539 -1.524,0.25213 -1.08145,-0.002 -1.36278,-0.074 -1.99589,-0.51121 -0.32908,-0.22722 -0.61905,-0.6827 -0.71096,-1.11675 l -0.0583,-0.27517 h -1.22094 -1.22094 v 0.20276 c 0,0.40242 0.34791,1.31651 0.65749,1.72749 1.1022,1.46319 3.11967,2.15929 5.44073,1.87724 z m -8.97688,-1.22515 v -1.05834 h -1.69334 -1.69333 v -4.699 -4.699 h -3.048 -3.048 v 1.05834 1.05833 h 1.778 1.778 v 3.64067 3.64066 h -1.778 -1.778 v 1.05834 1.05833 h 4.74133 4.74134 z m -4.14867,-12.47827 c 0.77785,-0.4074 1.02907,-0.99709 0.71065,-1.6681 -0.20691,-0.43604 -0.58506,-0.62797 -1.23729,-0.62797 -0.42936,0 -0.61068,0.0416 -0.8321,0.19079 -0.39477,0.26604 -0.62144,0.6893 -0.61976,1.15725 0.004,1.05576 0.92763,1.49843 1.9785,0.94803 z m 13.84638,-4.96665 c 1.0121,-0.26191 1.93601,-1.02844 2.52853,-2.09782 0.27034,-0.4879 6.14642,-13.76405 6.14642,-13.88693 0,-0.0308 -0.62457,-0.056 -1.38794,-0.056 -1.24378,0 -1.39384,0.0154 -1.4447,0.14817 -0.75217,1.96341 -3.1289,7.95611 -3.17501,8.00551 -0.0349,0.0374 -0.12985,-0.16845 -0.21093,-0.45745 -0.12685,-0.45208 -2.80207,-7.13396 -3.02201,-7.54806 -0.0699,-0.13164 -0.22949,-0.14817 -1.43039,-0.14817 -0.74342,0 -1.35168,0.031 -1.35168,0.0688 0,0.0379 1.08786,2.50484 2.41748,5.48217 l 2.41747,5.41332 -0.35195,0.71967 c -0.50248,1.02746 -1.03743,1.79881 -1.4419,2.07912 -0.30837,0.21369 -0.42609,0.24284 -0.99297,0.24583 l -0.64314,0.003 -0.1479,0.80434 c -0.22124,1.20328 -0.23148,1.15873 0.28807,1.25348 0.67834,0.12371 1.2467,0.11444 1.80255,-0.0294 z m -39.779681,-4.49174 c 1.728698,-0.45028 3.04647,-1.80304 3.581298,-3.67639 0.228584,-0.80067 0.319283,-2.51043 0.177598,-3.34793 -0.385656,-2.27965 -1.638499,-3.87314 -3.507085,-4.46067 -0.871704,-0.27409 -2.624004,-0.27581 -3.489694,-0.003 -1.47514,0.46412 -2.69218,1.68285 -3.21053,3.21497 -0.44899,1.32709 -0.50422,3.2825 -0.12984,4.59707 0.59369,2.0847 2.139,3.48719 4.19455,3.80692 0.62693,0.0975 1.7428,0.0364 2.383703,-0.13053 z m -2.563913,-2.09899 c -1.11978,-0.52142 -1.72585,-1.80331 -1.72585,-3.65035 0,-1.29573 0.33825,-2.4476 0.90996,-3.09874 0.14343,-0.16335 0.46342,-0.40866 0.71111,-0.54514 0.39857,-0.21961 0.53303,-0.24813 1.16999,-0.24813 0.63696,0 0.77142,0.0285 1.169997,0.24813 1.142947,0.62977 1.683452,1.96193 1.59868,3.94021 -0.08051,1.87879 -0.73138,3.05499 -1.913477,3.45791 -0.50591,0.17243 -1.43492,0.12218 -1.92041,-0.10389 z m 31.964934,2.09281 c 0.60718,-0.1679 1.15579,-0.45111 1.61176,-0.83206 l 0.37018,-0.30928 0.13268,0.53542 0.13266,0.53542 1.3335,0.0233 c 0.73343,0.0128 1.3335,0.002 1.3335,-0.0238 0,-0.0259 -0.0843,-0.28407 -0.18733,-0.57364 -0.17895,-0.50295 -0.18966,-0.69317 -0.23931,-4.25184 -0.0427,-3.05895 -0.0758,-3.79712 -0.18514,-4.12665 -0.57728,-1.74003 -2.22283,-2.68901 -4.66277,-2.68901 -2.43307,0 -4.34232,1.26669 -4.62739,3.07004 -0.046,0.2911 -0.0362,0.42675 0.0327,0.4532 0.0541,0.0208 0.6283,0.0271 1.27596,0.0141 l 1.17757,-0.0237 0.0661,-0.3189 c 0.1579,-0.76121 0.74601,-1.17119 1.76466,-1.23015 1.6586,-0.096 2.48454,0.5572 2.59778,2.05455 l 0.0482,0.6375 -1.13406,6.8e-4 c -3.29203,0.002 -5.0273,0.67776 -5.80383,2.26012 -0.22408,0.45662 -0.24089,0.56172 -0.24089,1.50685 0,0.99648 0.006,1.02629 0.29017,1.55117 0.83814,1.54585 2.92969,2.28514 4.91322,1.73666 z m -1.63172,-1.97219 c -0.37334,-0.11948 -0.82659,-0.50639 -0.95598,-0.81608 -0.15085,-0.36105 -0.15157,-1.06158 -10e-4,-1.41244 0.37469,-0.87571 1.58308,-1.28733 3.60876,-1.22927 l 0.889,0.0255 0.0241,0.97021 c 0.0278,1.11822 -0.0291,1.31285 -0.51067,1.74793 -0.57217,0.51693 -1.17317,0.74164 -2.05344,0.7678 -0.4191,0.0125 -0.86925,-0.0117 -1.00033,-0.0536 z m -44.762004,-2.10723 v -4.05126 l 0.23473,-0.3495 c 0.49931,-0.74347 1.29335,-1.12956 2.3238,-1.12994 1.13084,-4.3e-4 1.71294,0.3081 2.0872,1.10624 l 0.2226,0.47472 0.0271,4.0005 0.0271,4.0005 h 1.27042 1.27042 l -0.0334,-4.16984 c -0.036,-4.49795 -0.0431,-4.57456 -0.52173,-5.60916 -0.56719,-1.22613 -1.78201,-1.90782 -3.39114,-1.90293 -1.27309,0.004 -2.19407,0.37769 -3.05733,1.24095 l -0.52903,0.52903 -0.0602,-0.80368 -0.0602,-0.80368 -1.15392,0.0235 -1.15393,0.0235 -0.0218,5.73617 -0.0218,5.73617 h 1.2706 1.27059 z m 30.734004,-0.0662 c 0,-3.9803 0.006,-4.12671 0.17065,-4.39362 0.76365,-1.23561 3.08485,-1.53049 4.09512,-0.52023 0.62614,0.62615 0.6449,0.77753 0.6449,5.20575 v 3.82561 h 1.27498 1.27498 l -0.0299,-4.2545 c -0.0268,-3.81797 -0.0456,-4.30228 -0.1824,-4.72017 -0.39426,-1.20413 -1.15271,-2.11559 -2.03516,-2.44575 -1.82478,-0.68275 -3.54756,-0.3095 -4.81048,1.0422 l -0.40164,0.42988 -8.4e-4,-3.19616 -8.5e-4,-3.19617 h -1.27 -1.270005 v 8.11389 c 0,4.46264 0.0254,8.13929 0.05645,8.17033 0.03104,0.031 0.602539,0.0565 1.270005,0.0565 h 1.21355 v -4.11751 z M 83.726776,128.28869 c 0.84146,-0.15958 1.9376,-0.79099 2.35629,-1.35729 l 0.17239,-0.23318 -0.33426,-0.23164 -0.33426,-0.23164 -0.38779,0.35745 c -1.00234,0.92392 -2.5842,1.15451 -3.80905,0.55524 -0.49258,-0.241 -1.20305,-0.94649 -1.45961,-1.44939 -0.20534,-0.4025 -0.4077,-1.11315 -0.47367,-1.6634 l -0.0482,-0.40217 h 3.52404 3.52403 l -0.0471,-0.91017 c -0.0942,-1.81826 -0.81622,-3.0523 -2.15779,-3.68781 -0.54749,-0.25935 -0.61395,-0.27035 -1.63344,-0.27035 -1.05719,0 -1.06606,0.002 -1.70449,0.31718 -1.64949,0.81522 -2.62,2.70297 -2.4924,4.848 0.17843,2.99931 2.48453,4.89413 5.30537,4.35917 z m -4.18842,-5.82019 c 0.28578,-1.29075 0.86294,-2.11995 1.79495,-2.57877 0.49959,-0.24595 0.64602,-0.27847 1.24528,-0.27658 0.88786,0.003 1.41493,0.22984 1.98717,0.85596 0.44738,0.4895 0.72207,1.09629 0.81565,1.80174 l 0.0571,0.43049 h -2.97585 -2.97586 z m 21.121754,5.82019 c 0.84146,-0.15958 1.93761,-0.79099 2.35629,-1.35729 l 0.17239,-0.23318 -0.33425,-0.23164 -0.33427,-0.23164 -0.38779,0.35745 c -1.00233,0.92392 -2.584197,1.15451 -3.809053,0.55524 -0.492582,-0.241 -1.203045,-0.94649 -1.459602,-1.44939 -0.205342,-0.4025 -0.407704,-1.11315 -0.473677,-1.6634 l -0.04821,-0.40217 h 3.524028 3.524044 l -0.0471,-0.91017 c -0.0942,-1.81826 -0.81623,-3.0523 -2.15779,-3.68781 -0.54751,-0.25935 -0.61396,-0.27035 -1.633455,-0.27035 -1.057191,0 -1.066064,0.002 -1.704493,0.31718 -1.649493,0.81522 -2.62,2.70297 -2.492392,4.848 0.178427,2.99931 2.484527,4.89413 5.30536,4.35917 z m -4.188419,-5.82019 c 0.285775,-1.29075 0.86294,-2.11995 1.794942,-2.57877 0.499592,-0.24595 0.646023,-0.27847 1.245286,-0.27658 0.887871,0.003 1.414931,0.22984 1.987171,0.85596 0.44738,0.4895 0.72207,1.09629 0.81565,1.80174 l 0.0571,0.43049 h -2.975857 -2.975856 z m 15.339679,5.6683 c 1.38203,-0.43961 2.1362,-1.39425 2.02967,-2.56917 -0.0807,-0.88979 -0.60419,-1.51695 -1.66423,-1.99373 -0.25312,-0.11385 -1.12817,-0.37543 -1.94455,-0.5813 -1.60615,-0.40501 -2.12956,-0.64838 -2.40359,-1.11759 -0.2125,-0.36386 -0.21504,-0.94249 -0.006,-1.30096 0.51355,-0.87934 2.19573,-1.2535 3.53608,-0.78651 0.58596,0.20415 1.19441,0.80997 1.33267,1.32692 l 0.1074,0.40154 h 0.49044 c 0.48161,0 0.49044,-0.004 0.49044,-0.23891 0,-1.02839 -1.0126,-2.08182 -2.33129,-2.4253 -0.62682,-0.16327 -1.96706,-0.16681 -2.56828,-0.007 -1.846,0.49133 -2.74951,1.96365 -2.04838,3.33795 0.3673,0.71999 1.28396,1.20017 3.2294,1.69168 1.49113,0.37673 2.06389,0.63047 2.43248,1.07763 1.10077,1.33544 -0.63556,2.80947 -2.93574,2.49223 -1.15465,-0.15925 -1.93689,-0.7014 -2.14735,-1.48826 l -0.10062,-0.37623 h -0.53066 -0.53066 l 0.0513,0.27517 c 0.22203,1.19177 1.18992,2.05324 2.69617,2.39971 0.69946,0.16089 2.12614,0.10104 2.815,-0.11808 z m 12.15321,0.0566 c 0.29881,-0.0968 0.3173,-0.12177 0.26885,-0.36382 -0.1026,-0.5125 -0.13421,-0.57052 -0.27987,-0.51377 -0.0773,0.0301 -0.54058,0.0756 -1.02953,0.1011 -1.05276,0.0549 -1.48463,-0.0399 -1.91872,-0.421 -0.57296,-0.50306 -0.57371,-0.50816 -0.60537,-4.06176 l -0.0285,-3.19617 h 1.74196 1.74195 v -0.42158 -0.42158 l -1.7145,-0.0229 -1.7145,-0.0229 v -1.18533 -1.18533 l -0.52917,-0.0252 -0.52917,-0.0252 v 1.23171 1.23171 h -1.31233 -1.31233 v 0.42333 0.42333 h 1.30706 1.30706 l 0.0264,3.3655 c 0.0237,3.0104 0.0423,3.40076 0.17722,3.69961 0.34668,0.76815 0.91443,1.25622 1.69272,1.45514 0.52584,0.13439 2.22062,0.0939 2.71071,-0.0648 z m 8.3185,0.0492 c 2.24204,-0.58382 3.52918,-3.21217 2.95377,-6.03166 -0.33845,-1.65843 -1.31791,-2.8383 -2.75999,-3.32472 -0.44989,-0.15175 -0.6852,-0.17578 -1.46716,-0.14987 -0.83072,0.0275 -0.99079,0.0592 -1.48167,0.29277 -1.40981,0.67093 -2.2519,1.96744 -2.45844,3.78508 -0.26035,2.29125 0.656,4.30609 2.35093,5.16915 0.75389,0.38389 1.96329,0.49342 2.86256,0.25925 z m -1.64323,-0.80484 c -1.57345,-0.3163 -2.55115,-1.79929 -2.55115,-3.86966 0,-1.01093 0.1859,-1.82158 0.56101,-2.44636 0.39984,-0.66599 0.63337,-0.8958 1.24743,-1.22764 0.47991,-0.25935 0.57848,-0.28084 1.28189,-0.2795 0.91907,0.002 1.34901,0.16733 1.98907,0.76604 1.21817,1.13946 1.53402,3.64259 0.68177,5.40311 -0.58308,1.20448 -1.94789,1.90773 -3.21002,1.65401 z m -58.560584,0.63894 c 1.50588,-0.31898 2.7598,-1.29901 3.41114,-2.66603 0.44527,-0.93455 0.61019,-1.63766 0.67051,-2.85861 0.0982,-1.98836 -0.24307,-3.58773 -1.01044,-4.73503 -0.48323,-0.72249 -0.99721,-1.18571 -1.76425,-1.59002 -0.94608,-0.49868 -1.34351,-0.56889 -3.4847,-0.6156 l -1.92616,-0.042 v 6.31764 6.31764 l 1.75683,-0.001 c 1.22132,-0.001 1.93675,-0.0396 2.34707,-0.1265 z m -3.0879,-6.17162 v -5.38441 h 1.25221 c 0.83682,0 1.41306,0.0419 1.73709,0.1263 1.49396,0.38912 2.51444,1.47975 2.93944,3.1415 0.24021,0.93921 0.24038,3.27722 2.6e-4,4.21593 -0.35746,1.39765 -1.14463,2.42413 -2.26648,2.95555 -0.56876,0.26941 -0.58158,0.27123 -2.11739,0.3003 l -1.54517,0.0292 v -5.38441 z"
         id="path14366" />
      <path
         style="fill:#1c1c18;stroke-width:0.0846667"
         d="m 59.043026,186.96937 c -0.40246,-0.0971 -0.63152,-0.25028 -0.80854,-0.5406 -0.14745,-0.24183 -0.16452,-0.43476 -0.16481,-1.86289 l -3.3e-4,-1.59312 0.23283,0.0268 0.23283,0.0268 0.0423,1.5854 c 0.0403,1.50849 0.0517,1.59474 0.23519,1.778 0.15336,0.15315 0.28725,0.1926 0.65381,0.1926 0.36657,0 0.50046,-0.0395 0.65382,-0.1926 0.18349,-0.18326 0.1949,-0.26951 0.23518,-1.778 l 0.0423,-1.5854 0.23793,-0.0273 0.23792,-0.0273 -0.0263,1.65262 -0.0263,1.65261 -0.28425,0.29307 c -0.1744,0.1798 -0.42611,0.32878 -0.65133,0.38549 -0.40497,0.10198 -0.47248,0.10309 -0.84242,0.0138 z m 14.74757,-0.044 c -0.40688,-0.14511 -0.62024,-0.33746 -0.85007,-0.76634 -0.15087,-0.28151 -0.1815,-0.48153 -0.1815,-1.18533 0,-0.96516 0.1609,-1.39807 0.64872,-1.74543 0.32781,-0.23342 1.12821,-0.31783 1.51087,-0.15932 0.34281,0.14199 0.73258,0.60188 0.84099,0.99227 0.11614,0.41821 0.1136,1.41586 -0.005,1.84191 -0.11982,0.43158 -0.61888,0.93065 -1.05047,1.05047 -0.422,0.11715 -0.5142,0.11431 -0.91387,-0.0282 z m 1.0267,-0.47217 c 0.38305,-0.23354 0.52407,-0.61907 0.52407,-1.43273 0,-1.14372 -0.3267,-1.64132 -1.07758,-1.64132 -0.4158,0 -0.73207,0.23357 -0.923,0.68167 -0.16245,0.38124 -0.14891,1.46243 0.0237,1.89387 0.24822,0.62036 0.8911,0.84096 1.45279,0.49851 z m 7.5331,0.49734 c -0.38897,-0.10793 -0.86987,-0.62234 -0.99159,-1.06068 -0.11862,-0.42717 -0.11547,-1.45215 0.006,-1.81369 0.2464,-0.73594 0.74613,-1.09237 1.53075,-1.09182 0.68775,8.4e-4 1.14366,0.34425 1.33324,1.0053 0.0726,0.25328 0.0654,0.26438 -0.17295,0.26438 -0.21237,0 -0.26917,-0.051 -0.3882,-0.34846 -0.3235,-0.80851 -1.40476,-0.71394 -1.77511,0.15525 -0.17501,0.41072 -0.14755,1.51273 0.0485,1.94443 0.20127,0.44334 0.57459,0.65617 1.04114,0.59359 0.39901,-0.0535 0.6185,-0.23599 0.74503,-0.61937 0.0727,-0.22031 0.14159,-0.2861 0.29952,-0.2861 0.26974,0 0.2759,0.29323 0.0143,0.6814 -0.35254,0.52313 -1.03817,0.7567 -1.69018,0.57577 z m 8.267428,0.0211 c -0.390395,-0.0981 -0.758899,-0.3418 -0.913985,-0.60434 -0.211221,-0.35757 -0.179272,-0.50463 0.109636,-0.50463 0.191575,0 0.254276,0.0428 0.275166,0.18759 0.01488,0.10317 0.160406,0.27802 0.323389,0.38855 0.238441,0.16169 0.375069,0.19362 0.699358,0.16342 0.501914,-0.0467 0.739975,-0.24803 0.739975,-0.62568 0,-0.3883 -0.212662,-0.57153 -0.932375,-0.80333 -0.783934,-0.25248 -1.182102,-0.58922 -1.237097,-1.04622 -0.08185,-0.68019 0.456044,-1.143 1.328457,-1.143 0.53894,0 0.981135,0.2021 1.189361,0.54356 0.232566,0.38139 0.211922,0.64178 -0.05088,0.64178 -0.160986,0 -0.239968,-0.0704 -0.33562,-0.29938 -0.245697,-0.58804 -1.133769,-0.69728 -1.515204,-0.18639 -0.13876,0.18585 -0.156719,0.27731 -0.09119,0.46443 0.08849,0.25269 0.374157,0.42577 1.177839,0.71364 0.716114,0.25651 0.974707,0.53782 0.974707,1.06035 0,0.4584 -0.146227,0.72727 -0.493088,0.90663 -0.29838,0.1543 -0.920217,0.22554 -1.248451,0.14302 z m 9.567336,0 c -0.390394,-0.0981 -0.758899,-0.3418 -0.913991,-0.60434 -0.211218,-0.35757 -0.179265,-0.50463 0.109635,-0.50463 0.191583,0 0.254279,0.0428 0.275166,0.18759 0.01489,0.10317 0.160406,0.27802 0.323396,0.38855 0.238444,0.16169 0.375074,0.19362 0.699354,0.16342 0.50192,-0.0467 0.73998,-0.24803 0.73998,-0.62568 0,-0.3883 -0.21267,-0.57153 -0.93237,-0.80333 -0.783944,-0.25248 -1.182107,-0.58922 -1.237107,-1.04622 -0.08186,-0.68019 0.456053,-1.143 1.328467,-1.143 0.53894,0 0.98113,0.2021 1.18935,0.54356 0.23258,0.38139 0.21193,0.64178 -0.0509,0.64178 -0.16099,0 -0.23996,-0.0704 -0.33562,-0.29938 -0.24569,-0.58804 -1.13377,-0.69728 -1.515204,-0.18639 -0.13876,0.18585 -0.15672,0.27731 -0.0912,0.46443 0.0885,0.25269 0.374164,0.42577 1.177844,0.71364 0.71612,0.25651 0.97471,0.53782 0.97471,1.06035 0,0.4584 -0.14623,0.72727 -0.49309,0.90663 -0.29837,0.1543 -0.92022,0.22554 -1.24845,0.14302 z m 4.00077,-0.0463 c -0.40688,-0.14511 -0.62024,-0.33746 -0.85007,-0.76634 -0.15087,-0.28151 -0.18149,-0.48153 -0.18149,-1.18533 0,-0.96516 0.16089,-1.39807 0.64871,-1.74543 0.32782,-0.23342 1.12821,-0.31783 1.51087,-0.15932 0.34281,0.14199 0.73258,0.60188 0.841,0.99227 0.11613,0.41821 0.11359,1.41586 -0.005,1.84191 -0.16382,0.59009 -0.91505,1.15602 -1.51423,1.14071 -0.0698,-0.002 -0.2724,-0.0551 -0.45011,-0.11847 z m 1.0267,-0.47217 c 0.38306,-0.23354 0.52407,-0.61907 0.52407,-1.43273 0,-1.14372 -0.32669,-1.64132 -1.07758,-1.64132 -0.4158,0 -0.73207,0.23357 -0.923,0.68167 -0.16245,0.38124 -0.1489,1.46243 0.0237,1.89387 0.24822,0.62036 0.8911,0.84096 1.45279,0.49851 z m 17.10043,0.49734 c -0.38896,-0.10793 -0.86986,-0.62234 -0.99159,-1.06068 -0.11862,-0.42717 -0.11546,-1.45215 0.006,-1.81369 0.24641,-0.73594 0.74613,-1.09237 1.53076,-1.09182 0.68774,8.4e-4 1.14365,0.34425 1.33323,1.0053 0.0726,0.25328 0.0654,0.26438 -0.17294,0.26438 -0.21238,0 -0.26919,-0.051 -0.38821,-0.34846 -0.3235,-0.80851 -1.40476,-0.71394 -1.77511,0.15525 -0.17501,0.41072 -0.14755,1.51273 0.0485,1.94443 0.20128,0.44334 0.57459,0.65617 1.04115,0.59359 0.39901,-0.0535 0.6185,-0.23599 0.74502,-0.61937 0.0727,-0.22031 0.14159,-0.2861 0.29953,-0.2861 0.26974,0 0.27589,0.29323 0.0143,0.6814 -0.35255,0.52313 -1.03817,0.7567 -1.69019,0.57577 z m 14.478,0 c -0.38896,-0.10793 -0.86986,-0.62234 -0.99159,-1.06068 -0.11862,-0.42717 -0.11546,-1.45215 0.006,-1.81369 0.24641,-0.73594 0.74613,-1.09237 1.53076,-1.09182 0.68774,8.4e-4 1.14365,0.34425 1.33323,1.0053 0.0727,0.25328 0.0654,0.26438 -0.17294,0.26438 -0.21238,0 -0.26919,-0.051 -0.38821,-0.34846 -0.3235,-0.80851 -1.40476,-0.71394 -1.77511,0.15525 -0.17501,0.41072 -0.14755,1.51273 0.0485,1.94443 0.20128,0.44334 0.57459,0.65617 1.04115,0.59359 0.39901,-0.0535 0.6185,-0.23599 0.74502,-0.61937 0.0727,-0.22031 0.14159,-0.2861 0.29953,-0.2861 0.26974,0 0.27589,0.29323 0.0143,0.6814 -0.35255,0.52313 -1.03817,0.7567 -1.69019,0.57577 z m -74.553424,-1.95567 0.0227,-1.9685 0.2252,-0.026 c 0.26504,-0.0307 0.20944,-0.0992 1.39203,1.71656 l 0.88044,1.35186 v -1.54236 -1.54235 h 0.254 0.254 v 1.98967 1.98967 h -0.24619 c -0.22577,0 -0.3258,-0.12267 -1.2065,-1.47958 -0.52817,-0.81376 -0.98889,-1.48051 -1.02382,-1.48166 -0.0349,-0.001 -0.0635,0.66465 -0.0635,1.47957 v 1.48167 h -0.25556 -0.25556 z m 6.58439,-0.0318 v -2.00033 l 0.95915,0.0367 c 0.75396,0.0289 1.02112,0.0725 1.24883,0.20403 0.54633,0.31556 0.74581,1.0838 0.42012,1.61796 -0.24445,0.4009 -0.60922,0.55045 -1.46114,0.59902 l -0.74362,0.0424 v 0.75026 c 0,0.74383 -0.002,0.75026 -0.21167,0.75026 h -0.21167 z m 2.08167,-0.22691 c 0.23375,-0.27174 0.26899,-0.69078 0.0807,-0.9596 -0.18831,-0.26884 -0.55413,-0.38062 -1.15338,-0.35242 l -0.54333,0.0256 -0.0245,0.79199 -0.0245,0.79199 0.7303,-0.03 c 0.67762,-0.0278 0.74503,-0.0471 0.93462,-0.26755 z m 6.385,0.22602 v -2.0012 l 0.78317,0.0411 c 1.44196,0.0757 2.01083,0.62832 2.01083,1.95326 0,0.69417 -0.15252,1.14454 -0.508,1.50002 -0.37333,0.37333 -0.808,0.508 -1.63966,0.508 h -0.64634 z m 1.82712,1.32134 c 0.3296,-0.30405 0.4589,-0.67843 0.45875,-1.32825 -2.5e-4,-1.03477 -0.40438,-1.50391 -1.29643,-1.50494 l -0.52377,-8.5e-4 -0.0231,1.55483 -0.0231,1.55484 0.59049,-0.0334 c 0.48265,-0.0273 0.63189,-0.0716 0.81719,-0.24249 z m 6.27013,0.33695 c 0.0779,-0.19462 0.41594,-1.08291 0.75125,-1.97398 0.58988,-1.56751 0.61729,-1.6201 0.8444,-1.6201 0.22829,0 0.25501,0.0534 0.974218,1.94733 0.672434,1.77075 0.72464,1.94986 0.575697,1.9752 -0.27812,0.0473 -0.357519,-0.0321 -0.525066,-0.5251 l -0.161918,-0.47643 h -0.858831 -0.85883 l -0.17326,0.48683 c -0.15683,0.44065 -0.19869,0.48937 -0.44126,0.51348 l -0.26799,0.0266 z m 2.232084,-1.17065 c 0,-0.17072 -0.568494,-1.63002 -0.635004,-1.63002 -0.0665,0 -0.635,1.4593 -0.635,1.63002 0,0.0408 0.28575,0.0742 0.635,0.0742 0.349254,0 0.635004,-0.0334 0.635004,-0.0742 z m 7.007884,-0.24327 -0.02288,-1.75683 -0.613833,-0.0249 c -0.590253,-0.0239 -0.613834,-0.0329 -0.613834,-0.23479 v -0.20991 l 1.502834,0.0231 c 1.486052,0.0229 1.503138,0.0252 1.529892,0.21362 0.02601,0.18316 0.0024,0.1905 -0.613833,0.1905 h -0.640893 v 1.778 1.778 h -0.252282 -0.252282 z m 13.058116,-0.23283 v -1.98967 l 0.6985,0.002 c 1.29412,0.004 1.73786,0.23775 1.8192,0.95939 0.0401,0.35589 0.0196,0.41291 -0.24346,0.67595 l -0.28728,0.28728 0.23495,0.13484 c 0.39905,0.22903 0.52389,0.84735 0.27015,1.33803 -0.21212,0.4102 -0.69366,0.57777 -1.66656,0.57995 l -0.8255,0.002 v -1.98967 z m 1.90886,1.35852 c 0.25557,-0.25558 0.27681,-0.70422 0.0468,-0.98831 -0.1402,-0.17314 -0.24975,-0.2029 -0.84666,-0.23 l -0.68563,-0.0311 v 0.72863 0.72863 h 0.63885 c 0.56539,0 0.66274,-0.0239 0.84667,-0.20781 z m -0.0523,-1.87794 c 0.21876,-0.2781 0.22331,-0.54574 0.0137,-0.8047 -0.14344,-0.1772 -0.23227,-0.19988 -0.78316,-0.19988 h -0.62138 l -0.0249,0.61383 -0.0249,0.61384 h 0.63256 c 0.58253,0 0.64645,-0.0177 0.80804,-0.22309 z m 2.20748,0.50854 v -2.00054 l 0.91759,0.0378 c 1.32396,0.0546 1.70708,0.3296 1.70708,1.22556 0,0.33858 -0.0423,0.42932 -0.33867,0.72564 -0.18626,0.18627 -0.33797,0.36276 -0.33712,0.3922 8.4e-4,0.0294 0.19134,0.39172 0.42333,0.80504 0.23199,0.41332 0.42179,0.76816 0.42179,0.78853 0,0.0204 -0.12286,0.0251 -0.27302,0.0105 -0.25065,-0.0244 -0.30665,-0.0907 -0.6834,-0.8097 l -0.41038,-0.78317 h -0.50193 -0.50193 v 0.80433 c 0,0.80152 -8.5e-4,0.80434 -0.21167,0.80434 h -0.21167 z m 1.77195,-0.15532 c 0.42051,-0.21746 0.48596,-0.81453 0.12634,-1.15254 -0.18921,-0.17785 -0.29945,-0.20526 -0.8255,-0.20526 h -0.60712 l -0.0245,0.74083 -0.0245,0.74084 h 0.55784 c 0.32399,0 0.65825,-0.0519 0.79737,-0.12387 z m 2.20739,0.16387 v -1.99198 l 1.2065,0.0235 c 1.17324,0.0229 1.20723,0.0287 1.23319,0.21126 0.0261,0.1837 0.005,0.18828 -0.97366,0.21167 l -1.00037,0.0239 -0.0248,0.61083 -0.0248,0.61084 0.87148,0.0242 c 0.83084,0.0231 0.87275,0.0331 0.89855,0.21467 0.0266,0.18725 0.0118,0.1905 -0.86784,0.1905 h -0.89489 v 0.71967 0.71966 h 1.016 1.016 v 0.21167 0.21167 h -1.22767 -1.22766 z m 9.82133,0.002 v -1.98967 h 0.254 0.254 v 1.98967 1.98967 h -0.254 -0.254 z m 2.032,-0.002 v -1.99198 l 1.2065,0.0235 c 1.17324,0.0229 1.20724,0.0287 1.2332,0.21126 0.0261,0.1837 0.005,0.18828 -0.97367,0.21167 l -1.00036,0.0239 -0.0248,0.61083 -0.0248,0.61084 0.87148,0.0242 c 0.83083,0.0231 0.87274,0.0331 0.89854,0.21467 0.0266,0.18725 0.0118,0.1905 -0.86783,0.1905 h -0.8949 v 0.71967 0.71966 h 1.016 1.016 v 0.21167 0.21167 h -1.22766 -1.22767 z m 3.66028,0.0235 0.0227,-1.9685 0.2252,-0.026 c 0.26504,-0.0307 0.20944,-0.0992 1.39204,1.71656 l 0.88043,1.35186 v -1.54236 -1.54235 h 0.254 0.254 v 1.98967 1.98967 h -0.24619 c -0.22577,0 -0.3258,-0.12267 -1.2065,-1.47958 -0.52817,-0.81376 -0.98889,-1.48051 -1.02381,-1.48166 -0.0349,-0.001 -0.0635,0.66465 -0.0635,1.47957 v 1.48167 h -0.25556 -0.25557 z m 8.78572,-0.0212 v -1.98967 h 0.254 0.254 v 1.98967 1.98967 h -0.254 -0.254 z m 1.83192,1.64675 c 0.0779,-0.19462 0.41593,-1.08291 0.75125,-1.97398 0.58987,-1.56751 0.61729,-1.6201 0.84439,-1.6201 0.22829,0 0.25502,0.0534 0.97423,1.94733 0.67243,1.77075 0.72463,1.94986 0.5757,1.9752 -0.27813,0.0473 -0.35753,-0.0321 -0.52507,-0.5251 l -0.16192,-0.47643 h -0.85883 -0.85884 l -0.17326,0.48683 c -0.15683,0.44065 -0.19868,0.48937 -0.44125,0.51348 l -0.268,0.0266 z m 2.23208,-1.17065 c 0,-0.17072 -0.56849,-1.63002 -0.635,-1.63002 -0.0665,0 -0.635,1.4593 -0.635,1.63002 0,0.0408 0.28575,0.0742 0.635,0.0742 0.34925,0 0.635,-0.0334 0.635,-0.0742 z m -0.0847,-12.85983 c 0,-0.0219 -0.1143,-0.5895 -0.254,-1.26127 -0.1397,-0.67176 -0.254,-1.25291 -0.254,-1.29145 0,-0.0385 0.1839,-0.0945 0.40866,-0.12428 1.15024,-0.15258 2.03681,-1.04657 2.56887,-2.59036 0.35103,-1.01854 0.42778,-1.79742 0.49242,-4.99724 0.056,-2.77228 0.0811,-3.15926 0.24358,-3.76007 0.52358,-1.93573 1.6972,-3.38244 3.47809,-4.28742 l 0.53389,-0.2713 -0.58683,-0.30879 c -1.33506,-0.70252 -2.27401,-1.63246 -2.86907,-2.84154 -0.69587,-1.41389 -0.72856,-1.64192 -0.8014,-5.59122 -0.0616,-3.3404 -0.10922,-3.9599 -0.37454,-4.87454 -0.40884,-1.40938 -1.50849,-2.36446 -2.72239,-2.36446 -0.2042,0 -0.37128,-0.0364 -0.37128,-0.081 0,-0.0445 0.1143,-0.6306 0.254,-1.30236 0.1397,-0.67177 0.254,-1.24796 0.254,-1.28044 0,-0.0796 1.00435,0.0256 1.73567,0.1818 2.12218,0.45329 4.03034,2.32241 4.86755,4.76797 0.46257,1.3512 0.52266,1.87638 0.5958,5.207 0.0742,3.37947 0.12058,3.76046 0.56965,4.67885 0.61861,1.26511 1.79553,1.89346 3.9365,2.10166 l 0.48683,0.0473 v 1.63433 1.63432 l -0.26458,0.0529 c -0.14552,0.0291 -0.40269,0.0536 -0.5715,0.0544 -0.47815,0.002 -1.41796,0.22549 -1.92298,0.45669 -0.57115,0.26148 -1.28951,0.93138 -1.58916,1.48195 -0.50118,0.92083 -0.57516,1.46304 -0.64785,4.74855 -0.0673,3.04246 -0.10066,3.37385 -0.46592,4.63027 -0.81398,2.80001 -2.83941,4.8964 -5.20601,5.38838 -0.66624,0.13851 -1.524,0.22929 -1.524,0.16129 z m -85.080524,-0.19307 c -2.64397,-0.69243 -4.56792,-2.96428 -5.30264,-6.26153 -0.10843,-0.48661 -0.15759,-1.3473 -0.21035,-3.683 -0.0599,-2.65059 -0.0913,-3.13266 -0.24078,-3.69732 -0.22085,-0.83402 -0.44477,-1.26607 -0.91888,-1.77293 -0.62801,-0.6714 -1.55669,-1.1016 -2.62161,-1.21441 -0.27182,-0.0288 -0.65614,-0.0724 -0.85405,-0.0969 l -0.35983,-0.0445 v -1.63972 -1.63973 l 0.48683,-0.0522 c 1.67256,-0.17929 2.42972,-0.44619 3.14535,-1.10873 0.5791,-0.53614 0.88399,-1.06921 1.11898,-1.95646 0.15435,-0.58275 0.18365,-1.03435 0.24345,-3.75281 0.0572,-2.59944 0.0948,-3.21137 0.23648,-3.85233 0.62612,-2.83148 2.02364,-4.77314 4.11296,-5.71437 0.5779,-0.26034 1.41847,-0.46395 2.26334,-0.54825 l 0.55839,-0.0557 0.23094,1.1695 c 0.12702,0.64323 0.24998,1.24979 0.27325,1.34792 0.039,0.16437 -10e-4,0.1819 -0.50872,0.22265 -1.29105,0.10363 -2.2279,1.02838 -2.63544,2.6014 -0.21079,0.81357 -0.29278,2.20866 -0.29625,5.04087 -0.003,2.14312 -0.0279,2.65992 -0.16152,3.30748 -0.44402,2.15135 -1.6931,3.76631 -3.63357,4.69786 l -0.59589,0.28607 0.76034,0.40162 c 1.39133,0.7349 2.25479,1.58394 2.86562,2.81777 0.64458,1.30199 0.69372,1.63328 0.76661,5.16853 0.0694,3.36614 0.14884,4.11274 0.55137,5.18218 0.54743,1.45438 1.59986,2.39549 2.67884,2.39549 0.13125,0 0.23864,0.0131 0.23864,0.0291 0,0.016 -0.1143,0.59347 -0.254,1.28321 -0.1397,0.68975 -0.254,1.26719 -0.254,1.28321 0,0.0934 -1.15435,-0.005 -1.68386,-0.14401 z m 15.48452,-0.30417 c -1.53408,-0.22398 -2.38428,-0.74954 -2.91873,-1.80423 -0.44184,-0.87193 -0.46793,-1.13283 -0.46793,-4.67892 v -3.28421 h -1.397 -1.397 v -0.97367 -0.97367 h 1.397 1.397 v -1.397 -1.397 h 1.27 1.27 v 1.397 1.397 h 2.159 2.159 v 0.97367 0.97367 h -2.159 -2.159 l 5.1e-4,3.02683 c 2.5e-4,1.76645 0.0359,3.15438 0.0855,3.33312 0.13899,0.50041 0.43564,0.86464 0.88776,1.09002 0.37444,0.18666 0.52077,0.20936 1.26988,0.19693 0.46566,-0.008 1.14881,-0.0736 1.5181,-0.14632 0.36929,-0.0728 0.68574,-0.11796 0.70322,-0.10048 0.0175,0.0175 0.0935,0.40309 0.169,0.8569 0.12941,0.77827 0.12883,0.83123 -0.0103,0.93294 -0.4748,0.34718 -2.85832,0.71157 -3.77706,0.57742 z m 11.85177,-0.0401 c -2.38458,-0.19417 -4.26901,-1.75798 -4.88585,-4.05458 -0.21579,-0.80341 -0.19112,-2.76799 0.0459,-3.65281 0.54599,-2.0385 2.04122,-3.5636 3.9305,-4.00904 0.62603,-0.14761 1.904024,-0.16533 2.536701,-0.0352 0.246767,0.0507 0.753468,0.23887 1.126001,0.41801 1.815116,0.87287 2.751667,2.75164 2.751667,5.51997 v 0.65839 h -3.990842 -3.990837 l 0.0542,0.3953 c 0.13018,0.9498 0.93028,2.02831 1.82203,2.45604 0.37791,0.18127 0.63289,0.23533 1.24607,0.26417 1.153408,0.0543 2.105001,-0.26676 2.919168,-0.98485 l 0.388106,-0.3423 0.662261,0.61072 c 0.599003,0.55239 0.653031,0.62796 0.565629,0.79128 -0.187158,0.3497 -1.080377,1.05736 -1.750102,1.38653 -1.085254,0.5334 -2.028915,0.69249 -3.430572,0.57835 z m 2.964901,-7.24519 c 0,-0.44087 -0.27294,-1.19188 -0.581567,-1.60022 -0.210276,-0.27822 -0.47544,-0.49661 -0.811863,-0.66866 -0.4338,-0.22186 -0.589592,-0.25551 -1.182921,-0.25551 -0.57643,0 -0.75856,0.0369 -1.16436,0.23623 -0.73787,0.36235 -1.22461,1.01821 -1.53695,2.07094 l -0.13188,0.4445 h 2.70477 2.704771 z m 9.414332,7.24848 c -1.998523,-0.25946 -3.533216,-1.35289 -3.994348,-2.84586 -0.09386,-0.30388 -0.170651,-0.64375 -0.170651,-0.75525 v -0.20276 h 1.220936 1.220944 l 0.05827,0.27517 c 0.09191,0.43404 0.381881,0.88953 0.710955,1.11675 0.633112,0.43716 0.914442,0.50921 1.995891,0.51121 0.961434,0.002 1.043294,-0.0118 1.524004,-0.25213 0.58822,-0.2941 0.88916,-0.67823 0.88869,-1.13435 -8.5e-4,-0.72335 -0.58831,-1.13097 -2.166064,-1.50272 -2.502101,-0.58955 -3.347294,-0.92765 -4.147818,-1.65929 -0.647093,-0.59141 -0.880552,-1.09513 -0.881645,-1.90229 -0.0011,-0.84338 0.22843,-1.42052 0.818611,-2.05799 0.561238,-0.6062 1.479618,-1.0997 2.447036,-1.31493 0.958393,-0.21322 2.62876,-0.13789 3.54919,0.16006 1.62071,0.52463 2.5824,1.54413 2.7881,2.95568 l 0.0586,0.40217 h -1.27192 -1.27192 l -0.0925,-0.34347 c -0.26633,-0.98907 -1.58706,-1.60221 -2.923241,-1.35709 -1.040232,0.19083 -1.647783,0.70559 -1.647156,1.39558 8.46e-4,0.81823 0.580982,1.19082 2.463943,1.58217 2.237934,0.46514 3.247824,0.86954 3.961954,1.58654 0.66411,0.66677 0.91138,1.45913 0.7569,2.42538 -0.25102,1.57012 -1.71298,2.64755 -3.96356,2.92104 -0.803814,0.0977 -1.158095,0.097 -1.933218,-0.004 z m 26.162001,0 c -1.99852,-0.25946 -3.53321,-1.35289 -3.99434,-2.84586 -0.0939,-0.30388 -0.17066,-0.64375 -0.17066,-0.75525 v -0.20276 h 1.22094 1.22094 l 0.0583,0.27517 c 0.0919,0.43404 0.38188,0.88953 0.71096,1.11675 0.63311,0.43716 0.91444,0.50921 1.99589,0.51121 0.96143,0.002 1.04329,-0.0118 1.524,-0.25213 0.58822,-0.2941 0.88916,-0.67823 0.88869,-1.13435 -8.5e-4,-0.72335 -0.58831,-1.13097 -2.16606,-1.50272 -2.5021,-0.58955 -3.3473,-0.92765 -4.14782,-1.65929 -0.64709,-0.59141 -0.88055,-1.09513 -0.88164,-1.90229 -0.001,-0.84338 0.22843,-1.42052 0.81861,-2.05799 0.56123,-0.6062 1.47961,-1.0997 2.44703,-1.31493 0.95839,-0.21322 2.62876,-0.13789 3.54919,0.16006 1.62071,0.52463 2.5824,1.54413 2.7881,2.95568 l 0.0586,0.40217 h -1.27192 -1.27192 l -0.0925,-0.34347 c -0.26633,-0.98907 -1.58706,-1.60221 -2.92324,-1.35709 -1.04023,0.19083 -1.64778,0.70559 -1.64716,1.39558 8.5e-4,0.81823 0.58099,1.19082 2.46395,1.58217 2.23793,0.46514 3.24782,0.86954 3.96195,1.58654 0.66411,0.66677 0.91138,1.45913 0.7569,2.42538 -0.25102,1.57012 -1.71298,2.64755 -3.96356,2.92104 -0.80381,0.0977 -1.15809,0.097 -1.93322,-0.004 z m -16.52633,-1.22153 v -1.05834 h 1.778 1.778 v -3.64066 -3.64067 h -1.778 -1.778 v -1.05833 -1.05834 h 3.048 3.048 v 4.699 4.699 h 1.69333 1.69334 v 1.05834 1.05833 h -4.74134 -4.74133 z m 3.91144,-12.37597 c -0.77545,-0.38216 -0.73829,-1.66703 0.0638,-2.20758 0.22142,-0.14921 0.40274,-0.19079 0.8321,-0.19079 0.65223,0 1.03038,0.19193 1.23729,0.62797 0.31842,0.67101 0.0672,1.2607 -0.71065,1.6681 -0.53166,0.27846 -0.99719,0.31194 -1.42256,0.1023 z m 13.46639,-5.03955 c -0.51955,-0.0948 -0.50931,-0.0502 -0.28807,-1.25348 l 0.1479,-0.80434 0.64314,-0.003 c 0.56688,-0.003 0.6846,-0.0321 0.99297,-0.24583 0.40447,-0.28031 0.93942,-1.05166 1.4419,-2.07912 l 0.35195,-0.71967 -2.41747,-5.41332 c -1.32962,-2.97733 -2.41748,-5.44431 -2.41748,-5.48217 0,-0.0379 0.60826,-0.0688 1.35168,-0.0688 1.2009,0 1.36047,0.0165 1.43039,0.14817 0.21994,0.4141 2.89516,7.09598 3.02201,7.54806 0.0811,0.289 0.176,0.49485 0.21093,0.45745 0.0461,-0.0494 2.42284,-6.0421 3.17501,-8.00551 0.0509,-0.13278 0.20092,-0.14817 1.4447,-0.14817 0.76337,0 1.38794,0.0252 1.38794,0.056 0,0.12288 -5.87608,13.39903 -6.14642,13.88693 -0.94719,1.7095 -2.48367,2.46414 -4.33108,2.12722 z m -40.360834,-4.39062 c -2.05555,-0.31973 -3.60086,-1.72222 -4.19455,-3.80691 -0.37438,-1.31457 -0.31915,-3.26998 0.12984,-4.59707 0.51835,-1.53213 1.73539,-2.75085 3.21053,-3.21497 0.86569,-0.27237 2.61799,-0.27065 3.489694,0.003 1.868586,0.58753 3.121429,2.18103 3.507085,4.46067 0.141685,0.83751 0.05099,2.54726 -0.177598,3.34793 -0.534828,1.87336 -1.8526,3.22612 -3.581298,3.67639 -0.640903,0.16693 -1.756773,0.22804 -2.383703,0.13053 z m 1.7402,-2.12562 c 1.182097,-0.40292 1.832968,-1.57912 1.913477,-3.45791 0.08477,-1.97828 -0.455733,-3.31044 -1.59868,-3.94021 -0.398577,-0.21961 -0.533037,-0.24813 -1.169997,-0.24813 -0.63696,0 -0.77142,0.0285 -1.16999,0.24813 -0.24769,0.13648 -0.56768,0.38179 -0.71111,0.54514 -0.57171,0.65114 -0.90996,1.80301 -0.90996,3.09874 0,2.40359 1.03486,3.84913 2.75726,3.8515 0.33066,8.5e-4 0.73071,-0.0433 0.889,-0.0973 z m 28.185474,2.12568 c -1.36376,-0.12509 -2.47623,-0.80748 -3.05417,-1.87342 -0.2846,-0.52488 -0.29017,-0.55469 -0.29017,-1.55117 0,-0.94513 0.0168,-1.05024 0.24089,-1.50685 0.77653,-1.58236 2.5118,-2.2581 5.80383,-2.26012 l 1.13406,-6.8e-4 -0.0482,-0.6375 c -0.11324,-1.49735 -0.93918,-2.15057 -2.59778,-2.05456 -1.01865,0.059 -1.60676,0.46895 -1.76466,1.23016 l -0.0661,0.3189 -1.17757,0.0237 c -0.64766,0.013 -1.22185,0.007 -1.27596,-0.0141 -0.1403,-0.0538 -0.0142,-0.76727 0.22719,-1.28578 0.10682,-0.22942 0.40772,-0.63199 0.66866,-0.8946 0.87618,-0.88178 2.14622,-1.34287 3.69883,-1.34287 2.43994,0 4.08549,0.94899 4.66277,2.68902 0.10933,0.32953 0.14245,1.0677 0.18514,4.12665 0.0496,3.55867 0.0604,3.74889 0.23931,4.25183 0.10303,0.28957 0.18733,0.54771 0.18733,0.57365 0,0.0259 -0.60007,0.0367 -1.3335,0.0238 l -1.3335,-0.0233 -0.13266,-0.53542 -0.13268,-0.53543 -0.37018,0.30928 c -0.91942,0.76816 -2.09158,1.09534 -3.47081,0.96883 z m 2.46549,-2.29706 c 0.554,-0.25508 1.11369,-0.73236 1.25289,-1.06841 0.0598,-0.14437 0.0882,-0.61051 0.0734,-1.20558 l -0.0241,-0.97021 -0.889,-0.0255 c -2.51859,-0.0722 -3.72533,0.55316 -3.72533,1.93048 0,0.56088 0.16647,0.94063 0.53585,1.22236 0.42731,0.32593 0.67721,0.38418 1.53848,0.35858 0.60852,-0.0181 0.85785,-0.0668 1.23783,-0.24174 z m -49.519584,-3.60403 0.0218,-5.73617 1.15392,-0.0235 1.15392,-0.0235 0.0602,0.80368 0.0602,0.80368 0.52903,-0.52903 c 0.86326,-0.86326 1.78424,-1.23708 3.05733,-1.24095 1.60913,-0.005 2.82395,0.6768 3.39114,1.90293 0.4786,1.0346 0.48572,1.11121 0.52173,5.60916 l 0.0334,4.16984 h -1.27042 -1.27042 l -0.0271,-4.0005 -0.0271,-4.0005 -0.22261,-0.47472 c -0.37425,-0.79814 -0.95636,-1.10666 -2.08719,-1.10624 -1.03045,4.2e-4 -1.82449,0.38647 -2.32381,1.12994 l -0.23472,0.3495 v 4.05126 4.05126 h -1.2706 -1.27059 z m 30.769868,5.67972 c -0.03105,-0.031 -0.05645,-3.70769 -0.05645,-8.17033 v -8.11389 h 1.270006 1.27 l 8.5e-4,3.19617 8.4e-4,3.19616 0.40165,-0.42988 c 1.26291,-1.3517 2.98569,-1.72495 4.81048,-1.0422 0.88244,0.33016 1.64089,1.24162 2.03515,2.44575 0.13683,0.41789 0.15555,0.9022 0.1824,4.72017 l 0.0299,4.2545 h -1.27497 -1.27499 v -3.82561 c 0,-4.42822 -0.0187,-4.5796 -0.6449,-5.20575 -1.01027,-1.01026 -3.33147,-0.71538 -4.09512,0.52023 -0.16496,0.26691 -0.17065,0.41332 -0.17065,4.39362 v 4.11751 h -1.21355 c -0.667468,0 -1.238968,-0.0254 -1.270007,-0.0565 z M 81.720826,128.2538 c -1.89469,-0.45958 -3.16883,-2.1295 -3.2994,-4.32427 -0.12761,-2.14503 0.8429,-4.03278 2.4924,-4.848 0.63843,-0.31553 0.6473,-0.31718 1.70449,-0.31718 1.01949,0 1.08594,0.011 1.63344,0.27035 1.34157,0.63551 2.06362,1.86955 2.15779,3.68781 l 0.0471,0.91017 h -3.52404 -3.52403 l 0.0482,0.40217 c 0.066,0.55025 0.26833,1.2609 0.47367,1.6634 0.25656,0.5029 0.96703,1.20839 1.4596,1.44939 1.22486,0.59927 2.80672,0.36868 3.80906,-0.55524 l 0.38779,-0.35745 0.33426,0.23164 0.33426,0.23164 -0.1724,0.23318 c -0.41868,0.5663 -1.51483,1.19771 -2.35628,1.35729 -0.59102,0.11208 -1.46252,0.0969 -2.00596,-0.0349 z m 3.66058,-5.98295 c -0.0936,-0.70545 -0.36827,-1.31224 -0.81565,-1.80174 -0.57224,-0.62612 -1.09931,-0.85315 -1.98717,-0.85596 -0.59926,-0.002 -0.74569,0.0306 -1.24528,0.27658 -0.93201,0.45882 -1.50917,1.28802 -1.79495,2.57877 l -0.0516,0.23284 h 2.97585 2.97586 z m 13.272746,5.98294 c -1.894696,-0.45958 -3.168834,-2.1295 -3.299401,-4.32427 -0.127608,-2.14503 0.842899,-4.03278 2.492392,-4.848 0.638429,-0.31553 0.647302,-0.31718 1.704493,-0.31718 1.019494,0 1.085944,0.011 1.633454,0.27035 1.34156,0.63551 2.06361,1.86955 2.15779,3.68781 l 0.0471,0.91017 h -3.524044 -3.524027 l 0.04821,0.40217 c 0.06597,0.55025 0.268335,1.2609 0.473677,1.6634 0.256557,0.5029 0.96702,1.20839 1.459602,1.44939 1.224856,0.59927 2.806722,0.36868 3.809052,-0.55524 l 0.38779,-0.35745 0.33427,0.23164 0.33425,0.23164 -0.17239,0.23318 c -0.41868,0.5663 -1.51483,1.19771 -2.35629,1.35729 -0.59101,0.11208 -1.462515,0.0969 -2.005957,-0.0349 z m 3.660588,-5.98294 c -0.0936,-0.70545 -0.36827,-1.31224 -0.81565,-1.80174 -0.57224,-0.62612 -1.0993,-0.85315 -1.987171,-0.85596 -0.599263,-0.002 -0.745694,0.0306 -1.245286,0.27658 -0.932002,0.45882 -1.509167,1.28802 -1.794942,2.57877 l -0.05155,0.23284 h 2.975856 2.975853 z m 6.68163,5.98403 c -1.50625,-0.34647 -2.47414,-1.20794 -2.69617,-2.39971 L 106.2489,125.58 h 0.53066 0.53066 l 0.10062,0.37624 c 0.21046,0.78686 0.9927,1.32901 2.14735,1.48826 2.30018,0.31724 4.03651,-1.1568 2.93574,-2.49224 -0.36859,-0.44715 -0.94135,-0.70089 -2.43248,-1.07762 -1.94544,-0.49152 -2.8621,-0.9717 -3.2294,-1.69168 -0.70113,-1.37431 0.20238,-2.84663 2.04838,-3.33795 0.60122,-0.16003 1.94146,-0.15649 2.56828,0.007 1.31869,0.34347 2.33129,1.3969 2.33129,2.42529 0,0.23462 -0.009,0.23892 -0.49044,0.23892 h -0.49044 l -0.1074,-0.40155 c -0.13826,-0.51695 -0.74671,-1.12276 -1.33267,-1.32692 -1.34035,-0.46698 -3.02253,-0.0928 -3.53608,0.78651 -0.20937,0.35847 -0.20683,0.9371 0.006,1.30097 0.27403,0.46921 0.79744,0.71257 2.40359,1.11759 0.81638,0.20586 1.69143,0.46745 1.94455,0.58129 1.06004,0.47679 1.58354,1.10394 1.66423,1.99373 0.10653,1.17493 -0.64764,2.12956 -2.02967,2.56917 -0.68886,0.21913 -2.11554,0.27897 -2.815,0.11808 z m 12.2575,0.003 c -0.77829,-0.19892 -1.34604,-0.68699 -1.69272,-1.45514 -0.13487,-0.29885 -0.15357,-0.68921 -0.17722,-3.69961 l -0.0264,-3.3655 h -1.30706 -1.30706 v -0.42333 -0.42333 h 1.31233 1.31233 v -1.23171 -1.23171 l 0.52917,0.0252 0.52917,0.0252 v 1.18533 1.18533 l 1.7145,0.0229 1.7145,0.0229 v 0.42158 0.42158 h -1.74195 -1.74196 l 0.0285,3.19617 c 0.0317,3.5536 0.0324,3.5587 0.60537,4.06176 0.43409,0.38114 0.86596,0.4759 1.91872,0.421 0.48895,-0.0255 0.95223,-0.071 1.02953,-0.1011 0.14566,-0.0568 0.17727,0.001 0.27987,0.51376 0.0484,0.24205 0.03,0.26707 -0.26885,0.36383 -0.49009,0.15869 -2.18487,0.19922 -2.71071,0.0648 z m 8.88631,-0.0155 c -2.12008,-0.57078 -3.37123,-2.78269 -3.07059,-5.42854 0.20654,-1.81763 1.04863,-3.11415 2.45844,-3.78507 0.49088,-0.23361 0.65095,-0.26523 1.48167,-0.29277 0.78196,-0.0259 1.01727,-0.002 1.46716,0.14987 1.44208,0.48642 2.42154,1.66628 2.75999,3.32471 0.57541,2.81949 -0.71173,5.44785 -2.95377,6.03167 -0.61793,0.16091 -1.54551,0.16097 -2.1429,1.7e-4 z m 2.32557,-1.06345 c 1.10698,-0.52918 1.72897,-1.649 1.85233,-3.33494 0.0986,-1.34729 -0.35819,-2.72307 -1.14998,-3.46371 -0.64006,-0.5987 -1.07,-0.76428 -1.98907,-0.76603 -0.70341,-0.001 -0.80198,0.0202 -1.28189,0.27949 -0.61406,0.33184 -0.84759,0.56166 -1.24743,1.22765 -0.7191,1.19774 -0.7613,3.29778 -0.094,4.67594 0.72067,1.48829 2.42615,2.09092 3.90999,1.3816 z m -64.490384,-5.29225 v -6.31764 l 1.92616,0.042 c 2.14119,0.0467 2.53862,0.11692 3.4847,0.6156 1.99844,1.05338 2.93018,3.17735 2.77469,6.32505 -0.0603,1.22095 -0.22524,1.92406 -0.67051,2.85861 -0.65134,1.36702 -1.90526,2.34705 -3.41114,2.66603 -0.41032,0.0869 -1.12575,0.12548 -2.34707,0.1265 l -1.75683,0.001 z m 4.67855,5.07292 c 1.12186,-0.53142 1.90903,-1.5579 2.26649,-2.95555 0.24008,-0.93871 0.23991,-3.27672 -2.6e-4,-4.21593 -0.42504,-1.66175 -1.44552,-2.75238 -2.93948,-3.1415 -0.32403,-0.0844 -0.90027,-0.1263 -1.73709,-0.1263 h -1.25221 v 5.38441 5.38441 l 1.54516,-0.0292 c 1.53582,-0.0291 1.54863,-0.0309 2.11739,-0.3003 z"
         id="path14364" />
    </g>
  </g>
</svg>
